v 1.14877 1.19631 0.0912033
v 1.14818 1.19635 0.0911445
l 1 2
v 1.14786 1.19637 0.0911077
v 1.14818 1.19635 0.0911445
l 3 4
v 1.1485 1.19632 0.091176
v 1.14818 1.19635 0.0911445
l 5 6
v 1.1487 1.19632 0.0912033
v 1.14877 1.19631 0.0912033
l 7 8
v 1.1487 1.19632 0.0912033
v 1.14818 1.19636 0.0911497
l 9 10
v 1.1487 1.19632 0.0912033
v 1.14818 1.19636 0.0912567
l 11 12
v 1.14862 1.19632 0.0912033
v 1.1487 1.19632 0.0912033
l 13 14
v 1.14855 1.19633 0.0912033
v 1.14862 1.19632 0.0912033
l 15 16
v 1.14862 1.19632 0.0912033
v 1.14818 1.19636 0.0911497
l 17 18
v 1.14862 1.19632 0.0912033
v 1.1487 1.19632 0.0912033
l 19 20
v 1.14818 1.19636 0.0912567
v 1.14862 1.19632 0.0912033
l 21 22
v 1.1487 1.19632 0.0912033
v 1.14818 1.19636 0.0911497
l 23 24
v 1.14802 1.19637 0.0911332
v 1.14818 1.19636 0.0911497
l 25 26
v 1.14862 1.19632 0.0912033
v 1.14818 1.19636 0.0911497
l 27 28
v 1.14818 1.19637 0.0911616
v 1.14855 1.19633 0.0912033
l 29 30
v 1.14855 1.19633 0.0912033
v 1.14862 1.19632 0.0912033
l 31 32
v 1.14855 1.19633 0.0912033
v 1.14818 1.19637 0.0912448
l 33 34
v 1.14855 1.19633 0.0912033
v 1.14818 1.19636 0.0911554
l 35 36
v 1.14818 1.19636 0.091251
v 1.14855 1.19633 0.0912033
l 37 38
v 1.1484 1.19635 0.0912033
v 1.14817 1.19638 0.0911756
l 39 40
v 1.14817 1.19638 0.0912308
v 1.1484 1.19635 0.0912033
l 41 42
v 1.14817 1.19637 0.0911684
v 1.1484 1.19635 0.0912033
l 43 44
v 1.14817 1.19637 0.0912381
v 1.1484 1.19635 0.0912033
l 45 46
v 1.14815 1.19639 0.0912033
v 1.14825 1.19637 0.0912033
l 47 48
v 1.14816 1.19638 0.0911917
v 1.14825 1.19637 0.0912033
l 49 50
v 1.14816 1.19638 0.0912148
v 1.14825 1.19637 0.0912033
l 51 52
v 1.148 1.1964 0.0911723
v 1.14816 1.19638 0.0911917
l 53 54
v 1.14816 1.19638 0.0911917
v 1.14825 1.19637 0.0912033
l 55 56
v 1.14801 1.19639 0.0911647
v 1.14816 1.19638 0.0911917
l 57 58
v 1.14747 1.19647 0.0911994
v 1.14734 1.19649 0.0912033
l 59 60
v 1.14734 1.19649 0.0912033
v 1.14747 1.19647 0.0912069
l 61 62
v 1.14734 1.19649 0.0912033
v 1.14746 1.19647 0.0912033
l 63 64
v 1.14713 1.19652 0.0912033
v 1.14719 1.19651 0.0912033
l 65 66
v 1.14719 1.19651 0.0912033
v 1.14713 1.19651 0.091194
l 67 68
v 1.14719 1.19651 0.0912033
v 1.14713 1.19651 0.0912122
l 69 70
v 1.14785 1.19631 0.091083
v 1.14792 1.1963 0.0910924
l 71 72
v 1.14792 1.1963 0.0910924
v 1.14793 1.19631 0.0910933
l 73 74
v 0.812737 1.8163e-11 0.0912033
v 1.14792 1.1963 0.0910924
l 75 76
v 1.14785 1.19631 0.0910838
v 1.14792 1.1963 0.0910924
l 77 78
v 1.14869 1.1963 0.0911882
v 1.14861 1.1963 0.0911776
l 79 80
v 1.14861 1.1963 0.0911776
v 1.1485 1.19631 0.0911682
l 81 82
v 1.14861 1.1963 0.0911776
v 1.1485 1.19631 0.0911718
l 83 84
v 1.14786 1.19636 0.0910964
v 1.1477 1.19638 0.0910837
l 85 86
v 1.14786 1.19637 0.0911036
v 1.1477 1.19638 0.0910837
l 87 88
v 1.1477 1.19638 0.0910837
v 1.14786 1.19636 0.0910998
l 89 90
v 1.14786 1.19637 0.0911077
v 1.1477 1.19638 0.0910837
l 91 92
v 1.1481 1.19632 0.0911149
v 1.14801 1.19632 0.0911046
l 93 94
v 1.14801 1.19632 0.0911046
v 1.14794 1.19632 0.0910955
l 95 96
v 1.14801 1.19632 0.0911046
v 1.14793 1.19632 0.0910942
l 97 98
v 1.1481 1.19632 0.0911149
v 1.14801 1.19632 0.0911046
l 99 100
v 1.14802 1.19633 0.0911078
v 1.1481 1.19632 0.0911149
l 101 102
v 1.1481 1.19632 0.0911149
v 1.14818 1.19631 0.0911243
l 103 104
v 1.14802 1.19632 0.091106
v 1.1481 1.19632 0.0911149
l 105 106
v 1.14802 1.19634 0.0911101
v 1.1481 1.19633 0.0911185
l 107 108
v 1.1481 1.19633 0.0911185
v 1.14818 1.19632 0.0911255
l 109 110
v 1.14802 1.19634 0.0911128
v 1.1481 1.19633 0.0911185
l 111 112
v 1.1481 1.19633 0.0911185
v 1.14818 1.19632 0.0911272
l 113 114
v 1.14802 1.19635 0.091116
v 1.14818 1.19634 0.0911325
l 115 116
v 1.14802 1.19635 0.091116
v 1.14786 1.19636 0.0910964
l 117 118
v 1.14802 1.19635 0.091116
v 1.14819 1.19634 0.0911359
l 119 120
v 1.14802 1.19635 0.091116
v 1.14786 1.19636 0.0910998
l 121 122
v 1.14786 1.19638 0.0911122
v 1.14802 1.19637 0.0911332
l 123 124
v 1.14802 1.19637 0.0911332
v 1.14818 1.19636 0.0911497
l 125 126
v 1.14786 1.19638 0.091117
v 1.14802 1.19637 0.0911332
l 127 128
v 1.14802 1.19637 0.0911332
v 1.14818 1.19636 0.0911554
l 129 130
v 1.14794 1.19632 0.0910955
v 1.14793 1.19632 0.0910942
l 131 132
v 1.14801 1.19632 0.0911046
v 1.14794 1.19632 0.0910955
l 133 134
v 1.14802 1.19632 0.091106
v 1.14794 1.19632 0.0910955
l 135 136
v 1.14768 1.19643 0.0911364
v 1.14752 1.19645 0.0911328
l 137 138
v 1.1472 1.19648 0.0910974
v 1.14752 1.19645 0.0911328
l 139 140
v 1.14752 1.19645 0.0911328
v 1.14767 1.19643 0.0911508
l 141 142
v 1.14767 1.19643 0.0911508
v 1.14783 1.19642 0.0911694
l 143 144
v 1.14752 1.19645 0.0911328
v 1.14767 1.19643 0.0911508
l 145 146
v 1.14767 1.19643 0.0911508
v 1.14784 1.19641 0.091154
l 147 148
v 1.14783 1.19642 0.0911694
v 1.148 1.1964 0.0911723
l 149 150
v 1.148 1.1964 0.0911723
v 1.14785 1.19641 0.0911469
l 151 152
v 1.148 1.1964 0.0911723
v 1.14816 1.19638 0.0911917
l 153 154
v 1.148 1.1964 0.0911723
v 1.14784 1.19641 0.091154
l 155 156
v 1.14671 1.19654 0.0910671
v 1.14686 1.19653 0.0911015
l 157 158
v 1.14686 1.19653 0.0911015
v 1.14717 1.1965 0.0911413
l 159 160
v 1.1467 1.19654 0.0910811
v 1.14686 1.19653 0.0911015
l 161 162
v 1.14686 1.19653 0.0911015
v 1.14716 1.1965 0.0911578
l 163 164
v 1.14754 1.19641 0.0913215
v 1.14786 1.19638 0.0912942
l 165 166
v 1.14786 1.19638 0.0912942
v 1.14802 1.19637 0.0912732
l 167 168
v 1.14786 1.19638 0.0912942
v 1.14819 1.19635 0.0912665
l 169 170
v 1.14786 1.19638 0.0912942
v 1.14818 1.19635 0.0912619
l 171 172
v 1.14624 1.19633 0.0915216
v 1.14637 1.19632 0.0915062
l 173 174
v 1.14637 1.19632 0.0915062
v 1.14653 1.1963 0.0914868
l 175 176
v 1.14652 1.1963 0.0914869
v 1.14637 1.19632 0.0915062
l 177 178
v 1.14624 1.19633 0.0915211
v 1.14637 1.19632 0.0915062
l 179 180
v 1.14652 1.1963 0.0914869
v 1.14653 1.1963 0.0914868
l 181 182
v 1.14652 1.1963 0.0914869
v 1.14637 1.19632 0.0915062
l 183 184
v 1.14652 1.1963 0.0914869
v 1.14654 1.1963 0.0914844
l 185 186
v 1.14632 1.19662 0.0912562
v 1.14648 1.1966 0.0912453
l 187 188
v 1.14632 1.19662 0.0912562
v 1.14632 1.19661 0.0912666
l 189 190
v 1.03585 1.20929 0.0925228
v 1.14632 1.19662 0.0912562
l 191 192
v 1.14632 1.19662 0.0912562
v 1.14632 1.19661 0.0912643
l 193 194
v 1.148 1.1964 0.091234
v 1.14815 1.19639 0.0912033
l 195 196
v 1.148 1.1964 0.091234
v 1.14816 1.19638 0.091223
l 197 198
v 1.148 1.1964 0.091234
v 1.14784 1.19641 0.0912523
l 199 200
v 1.148 1.1964 0.091234
v 1.14816 1.19638 0.0912148
l 201 202
v 1.1487 1.19632 0.0912033
v 1.14818 1.19636 0.0912567
l 203 204
v 1.14818 1.19636 0.0912567
v 1.14802 1.19638 0.0912678
l 205 206
v 1.14818 1.19636 0.0912567
v 1.14862 1.19632 0.0912033
l 207 208
v 1.14877 1.19631 0.0912033
v 1.14818 1.19635 0.0912619
l 209 210
v 1.14818 1.19635 0.0912619
v 1.1485 1.19632 0.0912305
l 211 212
v 1.14786 1.19638 0.0912942
v 1.14818 1.19635 0.0912619
l 213 214
v 1.14809 1.19631 0.0912925
v 1.14809 1.1963 0.0912931
l 215 216
v 1.14809 1.19631 0.0912925
v 1.14802 1.19632 0.0913018
l 217 218
v 1.14809 1.1963 0.0912928
v 1.14809 1.19631 0.0912925
l 219 220
v 1.14802 1.19632 0.0913004
v 1.14809 1.19631 0.0912925
l 221 222
v 1.14718 1.1963 0.0914053
v 1.14719 1.1963 0.0914051
l 223 224
v 1.14718 1.1963 0.0914053
v 1.14703 1.19632 0.0914244
l 225 226
v 1.14718 1.1963 0.0914053
v 1.14723 1.1963 0.0913992
l 227 228
v 1.14685 1.1963 0.0914461
v 1.14686 1.1963 0.091446
l 229 230
v 1.14685 1.1963 0.0914461
v 1.1467 1.19632 0.0914655
l 231 232
v 1.14685 1.1963 0.0914461
v 1.14689 1.1963 0.0914418
l 233 234
v 1.1477 1.19638 0.0913227
v 1.14786 1.19637 0.0913028
l 235 236
v 1.14786 1.19636 0.09131
v 1.1477 1.19638 0.0913227
l 237 238
v 1.1477 1.19638 0.0913227
v 1.14786 1.19637 0.0912987
l 239 240
v 1.14786 1.19636 0.0913066
v 1.1477 1.19638 0.0913227
l 241 242
v 1.14786 1.19637 0.0913028
v 1.14819 1.19634 0.0912705
l 243 244
v 1.14819 1.19634 0.0912705
v 1.14786 1.19637 0.0912987
l 245 246
v 1.14803 1.19635 0.0912904
v 1.14819 1.19634 0.0912705
l 247 248
v 1.1485 1.19631 0.0912347
v 1.14819 1.19634 0.0912705
l 249 250
v 1.14786 1.19636 0.09131
v 1.14802 1.19634 0.0912936
l 251 252
v 1.14802 1.19634 0.0912936
v 1.14786 1.19636 0.0913066
l 253 254
v 1.1481 1.19633 0.0912879
v 1.14802 1.19634 0.0912936
l 255 256
v 1.14802 1.19634 0.0912936
v 1.14794 1.19634 0.0913047
l 257 258
v 1.14802 1.19634 0.0912963
v 1.14794 1.19634 0.0913047
l 259 260
v 1.14794 1.19634 0.0913047
v 1.14786 1.19635 0.091313
l 261 262
v 1.14794 1.19634 0.0913047
v 1.14802 1.19633 0.0912986
l 263 264
v 1.14802 1.19634 0.0912936
v 1.14794 1.19634 0.0913047
l 265 266
v 1.1481 1.19632 0.0912915
v 1.14802 1.19632 0.0913004
l 267 268
v 1.14802 1.19632 0.0913004
v 1.14809 1.19631 0.0912925
l 269 270
v 1.1481 1.19632 0.0912899
v 1.14802 1.19632 0.0913004
l 271 272
v 1.14802 1.19632 0.0913004
v 1.14794 1.19633 0.0913092
l 273 274
v 1.14794 1.19633 0.0913092
v 1.14802 1.19632 0.0913018
l 275 276
v 1.14786 1.19634 0.0913179
v 1.14794 1.19633 0.0913092
l 277 278
v 1.14802 1.19632 0.0913004
v 1.14794 1.19633 0.0913092
l 279 280
v 1.14786 1.19634 0.0913156
v 1.14794 1.19633 0.0913092
l 281 282
v 1.1485 1.19631 0.0912383
v 1.14861 1.1963 0.0912289
l 283 284
v 1.14861 1.1963 0.0912289
v 1.14869 1.1963 0.0912183
l 285 286
v 1.14861 1.1963 0.0912289
v 1.1485 1.19631 0.0912347
l 287 288
v 1.14785 1.19641 0.0912594
v 1.14768 1.19643 0.09127
l 289 290
v 1.14753 1.19644 0.0912872
v 1.14768 1.19643 0.09127
l 291 292
v 1.14768 1.19643 0.09127
v 1.14784 1.19641 0.0912523
l 293 294
v 1.14801 1.19639 0.0912489
v 1.14785 1.19641 0.0912594
l 295 296
v 1.14801 1.19639 0.0912489
v 1.14817 1.19638 0.0912308
l 297 298
v 1.14801 1.19639 0.0912489
v 1.14785 1.1964 0.0912662
l 299 300
v 1.14817 1.19637 0.0912381
v 1.14801 1.19639 0.0912489
l 301 302
v 1.148 1.1964 0.091234
v 1.14784 1.19641 0.0912523
l 303 304
v 1.14784 1.19641 0.0912523
v 1.14801 1.19639 0.0912417
l 305 306
v 1.14799 1.1964 0.0912174
v 1.14784 1.19641 0.0912523
l 307 308
v 1.14768 1.19643 0.09127
v 1.14784 1.19641 0.0912523
l 309 310
v 1.14632 1.19662 0.0912562
v 1.14632 1.19661 0.0912666
l 311 312
v 1.14632 1.19661 0.0912643
v 1.14632 1.19661 0.0912666
l 313 314
v 1.14632 1.19661 0.0912668
v 1.14632 1.19661 0.0912666
l 315 316
v 1.14632 1.19661 0.0912858
v 1.14632 1.19661 0.0912666
l 317 318
v 1.14632 1.19661 0.0912666
v 1.14649 1.19659 0.0912643
l 319 320
v 1.14632 1.19661 0.0912643
v 1.14632 1.19661 0.0912666
l 321 322
v 1.14632 1.19661 0.0912643
v 1.14632 1.19661 0.0912668
l 323 324
v 1.14632 1.19662 0.0912562
v 1.14632 1.19661 0.0912643
l 325 326
v 1.14632 1.19661 0.0912643
v 1.03585 1.20929 0.0925228
l 327 328
v 0.701171 1.1995 0.0827967
v 0.701577 1.19909 0.082279
l 329 330
v 0.701577 1.19909 0.082279
v 0.704414 1.19919 0.0810095
l 331 332
v 0.701579 1.19909 0.0822804
v 0.701577 1.19909 0.082279
l 333 334
v 0.812737 1.8163e-11 0.0912033
v 1.14792 1.1963 0.0910924
l 335 336
v 1.14809 1.1963 0.0911133
v 0.812737 1.8163e-11 0.0912033
l 337 338
v 0.812737 1.8163e-11 0.0912033
v 0.808145 -3.14099e-12 0.0906349
l 339 340
v 1.14882 1.1963 0.0912033
v 0.812737 1.8163e-11 0.0912033
l 341 342
v 0.808145 2.66613e-11 0.0917716
v 0.812737 1.8163e-11 0.0912033
l 343 344
v 1.14792 1.1963 0.0910929
v 0.812737 1.8163e-11 0.0912033
l 345 346
v 1.14809 1.1963 0.0911137
v 0.812737 1.8163e-11 0.0912033
l 347 348
v 1.11554 1.20057 0.0912033
v 1.03585 1.20929 0.0925228
l 349 350
v 1.03585 1.20929 0.0925228
v 1.14632 1.19662 0.0912562
l 351 352
v 1.03585 1.20929 0.0925228
v 1.14632 1.19662 0.091246
l 353 354
v 1.14632 1.19661 0.0912643
v 1.03585 1.20929 0.0925228
l 355 356
v 1.03194 1.19751 0.104172
v 1.14624 1.19633 0.0915216
l 357 358
v 1.03194 1.19751 0.104172
v 1.08908 1.1963 0.0984432
l 359 360
v 1.03194 1.19751 0.104172
v 1.14624 1.19633 0.0915211
l 361 362
v 1.14809 1.1963 0.0912931
v 0.808145 2.66613e-11 0.0917716
l 363 364
v 0.808145 2.66613e-11 0.0917716
v 0.812737 1.8163e-11 0.0912033
l 365 366
v 0.808145 2.66613e-11 0.0917716
v 0.706548 2.66613e-11 0.104074
l 367 368
v 0.808145 2.66613e-11 0.0917716
v 1.14809 1.1963 0.0912928
l 369 370
