# Wavefront OBJ file written 2026-08-26T13:13:00
o onera_edgeMesh

# points : 333
# lines  : 370

# <points count="333">
v 1.14877 1.19631 0.0912033
v 1.14882 1.1963 0.0912033
v 1.14712 1.19652 0.0912033
v 1.14632 1.1966 0.0910839
v 1.14624 1.19633 0.0915216
v 1.14719 1.1963 0.0914051
v 1.14686 1.1963 0.091446
v 1.14653 1.1963 0.0914868
v 1.14632 1.19661 0.0912668
v 1.14632 1.19661 0.0912858
v 1.11554 1.20057 0.0912033
v 1.14786 1.19637 0.0911077
v 1.14786 1.19637 0.0912987
v 0.701579 1.19909 0.0822804
v 1.14818 1.19635 0.0911445
v 1.1487 1.19632 0.0912033
v 1.14862 1.19632 0.0912033
v 1.14818 1.19636 0.0911497
v 1.14855 1.19633 0.0912033
v 1.1484 1.19635 0.0912033
v 1.14825 1.19637 0.0912033
v 1.14816 1.19638 0.0911917
v 1.14734 1.19649 0.0912033
v 1.14719 1.19651 0.0912033
v 1.14792 1.1963 0.0910924
v 1.14861 1.1963 0.0911776
v 1.1477 1.19638 0.0910837
v 1.14801 1.19632 0.0911046
v 1.1481 1.19632 0.0911149
v 1.1481 1.19633 0.0911185
v 1.14802 1.19635 0.091116
v 1.14802 1.19637 0.0911332
v 1.14794 1.19632 0.0910955
v 1.14752 1.19645 0.0911328
v 1.14767 1.19643 0.0911508
v 1.148 1.1964 0.0911723
v 1.14686 1.19653 0.0911015
v 1.14786 1.19638 0.0912942
v 1.14637 1.19632 0.0915062
v 1.14652 1.1963 0.0914869
v 1.14632 1.19662 0.0912562
v 1.148 1.1964 0.091234
v 1.14818 1.19636 0.0912567
v 1.14818 1.19635 0.0912619
v 1.14809 1.19631 0.0912925
v 1.14718 1.1963 0.0914053
v 1.14685 1.1963 0.0914461
v 1.1477 1.19638 0.0913227
v 1.14819 1.19634 0.0912705
v 1.14802 1.19634 0.0912936
v 1.14794 1.19634 0.0913047
v 1.14802 1.19632 0.0913004
v 1.14794 1.19633 0.0913092
v 1.14861 1.1963 0.0912289
v 1.14768 1.19643 0.09127
v 1.14801 1.19639 0.0912489
v 1.14784 1.19641 0.0912523
v 1.14632 1.19661 0.0912666
v 1.14632 1.19661 0.0912643
v 0.701577 1.19909 0.082279
v 0.812737 1.8163e-11 0.0912033
v 1.03585 1.20929 0.0925228
v 1.03194 1.19751 0.104172
v 0.808145 2.66613e-11 0.0917716
v 1.14689 1.1965 0.0910487
v 1.14672 1.19652 0.0910418
v 1.14817 1.19638 0.0911756
v 1.14801 1.19639 0.0911508
v 1.14809 1.19631 0.0911139
v 1.14809 1.1963 0.0911133
v 1.14654 1.1963 0.0909221
v 1.14652 1.1963 0.0909192
v 1.14626 1.19639 0.0908959
v 1.14639 1.19638 0.0909098
v 1.14818 1.19637 0.0911616
v 1.14815 1.19639 0.0912033
v 1.14798 1.19641 0.0912034
v 1.1481 1.19639 0.0912033
v 1.14781 1.19643 0.0912033
v 1.14794 1.19641 0.0912034
v 1.14795 1.19641 0.0912034
v 1.14779 1.19643 0.0912033
v 1.14747 1.19647 0.0911994
v 1.14689 1.19655 0.0912033
v 1.14713 1.19652 0.0912033
v 1.14664 1.19658 0.0911649
v 1.14648 1.1966 0.0911608
v 1.14632 1.19662 0.0911605
v 1.14631 1.19657 0.0910287
v 1.14639 1.19656 0.091036
v 1.14636 1.19659 0.0910903
v 1.14627 1.19642 0.090905
v 1.1464 1.1964 0.0909182
v 1.14637 1.19632 0.0908999
v 1.14689 1.1963 0.0909647
v 1.14685 1.1963 0.0909601
v 1.14669 1.1963 0.0909397
v 1.14785 1.19631 0.091083
v 1.14869 1.1963 0.0911882
v 1.1485 1.19631 0.0911682
v 1.14718 1.1963 0.0910009
v 1.14702 1.1963 0.0909805
v 1.14723 1.1963 0.0910073
v 1.14786 1.19636 0.0910964
v 1.14786 1.19635 0.0910934
v 1.14794 1.19634 0.0910992
v 1.14802 1.19633 0.0911078
v 1.14802 1.19634 0.0911101
v 1.14818 1.19634 0.0911325
v 1.14786 1.19637 0.0911036
v 1.14819 1.19635 0.09114
v 1.14786 1.19638 0.0911122
v 1.14777 1.19631 0.0910735
v 1.14769 1.19634 0.0910672
v 1.14786 1.19633 0.0910866
v 1.14793 1.19631 0.0910933
v 1.14793 1.19632 0.0910942
v 1.14753 1.19635 0.0910499
v 1.14818 1.19631 0.0911243
v 1.14818 1.19632 0.0911255
v 1.1485 1.19632 0.091176
v 1.14835 1.1963 0.0911456
v 1.14768 1.19643 0.0911364
v 1.14769 1.19642 0.0911233
v 1.14785 1.1964 0.0911338
v 1.14785 1.19641 0.0911469
v 1.14783 1.19642 0.0911694
v 1.14802 1.19638 0.0911386
v 1.14786 1.19639 0.0911223
v 1.14754 1.19641 0.0910848
v 1.14654 1.19657 0.0910766
v 1.14637 1.19658 0.0910618
v 1.14671 1.19654 0.0910671
v 1.1472 1.19648 0.0910974
v 1.14717 1.1965 0.0911413
v 1.14748 1.19647 0.0911809
v 1.1477 1.19641 0.0911115
v 1.14655 1.19655 0.0910496
v 1.14633 1.19661 0.0911222
v 1.1472 1.19648 0.0913089
v 1.14752 1.19645 0.0912735
v 1.1485 1.19631 0.0912383
v 1.14819 1.19634 0.091274
v 1.14803 1.19635 0.0912904
v 1.14754 1.19641 0.0913215
v 1.14625 1.19636 0.0915174
v 1.14638 1.19635 0.0915025
v 1.14632 1.1966 0.0913053
v 1.14637 1.19659 0.0913305
v 1.14648 1.1966 0.0912453
v 1.14683 1.19655 0.0912556
v 1.14747 1.19647 0.0912069
v 1.14816 1.19638 0.091223
v 1.14817 1.19638 0.0912308
v 1.14818 1.19637 0.0912448
v 1.14809 1.1963 0.0912931
v 1.14785 1.19631 0.0913233
v 1.14777 1.19631 0.0913328
v 1.14723 1.1963 0.0913992
v 1.14689 1.1963 0.0914418
v 1.14654 1.1963 0.0914844
v 1.14689 1.19649 0.0913686
v 1.14657 1.19652 0.0913918
v 1.14703 1.19632 0.0914244
v 1.1477 1.19636 0.0913323
v 1.14754 1.19638 0.0913457
v 1.14786 1.19634 0.0913179
v 1.14786 1.19637 0.0913028
v 1.14786 1.19636 0.09131
v 1.14786 1.19635 0.091313
v 1.14794 1.19634 0.0913071
v 1.14802 1.19634 0.0912963
v 1.14802 1.19633 0.0912986
v 1.14785 1.19632 0.0913213
v 1.1477 1.19634 0.0913391
v 1.14792 1.1963 0.0913141
v 1.14754 1.19635 0.0913564
v 1.1467 1.19632 0.0914655
v 1.1481 1.19632 0.0912915
v 1.1481 1.19633 0.0912879
v 1.14818 1.19632 0.0912809
v 1.14802 1.19632 0.0913018
v 1.14835 1.1963 0.0912609
v 1.14785 1.19641 0.0912594
v 1.14785 1.1964 0.0912725
v 1.14801 1.19639 0.0912556
v 1.14769 1.19642 0.0912831
v 1.1477 1.19641 0.0912949
v 1.14786 1.19639 0.0912841
v 1.14802 1.19638 0.0912678
v 1.14634 1.19661 0.091284
v 1.14651 1.19659 0.0912822
v 1.14652 1.19658 0.0912989
v 1.14668 1.19656 0.0912944
v 1.14671 1.19654 0.091339
v 1.14655 1.19656 0.0913435
v 1.1467 1.19655 0.0913102
v 1.14654 1.19657 0.0913295
v 1.14717 1.1965 0.091265
v 1.14685 1.19654 0.0912892
v 1.14688 1.19651 0.0913328
v 1.14768 1.19643 0.0912555
v 1.14753 1.19644 0.0912872
v 1.14802 1.19637 0.0912732
v 1.14819 1.19635 0.0912665
v 1.1485 1.19632 0.0912305
v 1.14721 1.19646 0.0913333
v 1.14686 1.19653 0.0913047
v 1.14869 1.1963 0.0912183
v 0.701171 1.1995 0.0827967
v 1.14632 1.19662 0.0911847
v 1.03585 1.20929 0.0898837
v 1.03549 1.20831 0.0860747
v 1.03194 1.19751 0.0782342
v 1.08908 1.1963 0.0839633
v 1.03209 1.19878 0.0783831
v 1.14624 1.19633 0.0908849
v 1.03252 1.19999 0.0786776
v 0.704414 1.19919 0.0810095
v 1.03505 1.20705 0.0837964
v 0.808145 -3.14099e-12 0.0906349
v 1.14632 1.19662 0.091246
v 1.03209 1.19878 0.104023
v 1.08908 1.1963 0.0984432
v 0.0430743 2.66613e-11 0.0671943
v 0.0938429 2.66613e-11 0.0608504
v 0.144849 2.66613e-11 0.12562
v 0.0938429 2.66613e-11 0.121556
v 0.144849 2.66613e-11 0.0567861
v 0.195949 2.66613e-11 0.1283
v 0.195949 2.66613e-11 0.0541067
v 0.298256 2.66613e-11 0.130625
v 0.298256 2.66613e-11 0.0517817
v 0.400572 2.66613e-11 0.128728
v 0.400572 2.66613e-11 0.0536782
v 0.502735 2.66613e-11 0.122785
v 0.502735 2.66613e-11 0.0596211
v 0.604723 2.66613e-11 0.114317
v 0.604723 2.66613e-11 0.0680899
v 0.706548 2.66613e-11 0.104074
v 0.706548 2.66613e-11 0.0783326
v 0.0430743 2.66613e-11 0.115212
v 0.0304752 2.66613e-11 0.113001
v 0.0304752 2.66613e-11 0.0694058
v 0.0242582 2.66613e-11 0.111499
v 0.0182119 2.66613e-11 0.109419
v 0.0153102 2.66613e-11 0.108074
v 0.0125356 2.66613e-11 0.106483
v 0.00993119 2.66613e-11 0.104628
v 0.0153102 2.66613e-11 0.074333
v 0.0182119 2.66613e-11 0.0729879
v 0.0242582 2.66613e-11 0.0709077
v 0.0075523 2.66613e-11 0.102492
v 0.00546866 2.66613e-11 0.100068
v 0.00456888 2.66613e-11 0.0987464
v 0.0075523 2.66613e-11 0.0799143
v 0.00993119 2.66613e-11 0.0777784
v 0.0125356 2.66613e-11 0.0759232
v 0.00224529 2.66613e-11 0.0912033
v 0.00234942 2.66613e-11 0.0896082
v 0.00234942 2.66613e-11 0.0927983
v 0.00265405 2.66613e-11 0.0880393
v 0.00265405 2.66613e-11 0.0943672
v 0.00314052 2.66613e-11 0.0865167
v 0.00314052 2.66613e-11 0.0958898
v 0.00378604 2.66613e-11 0.0850541
v 0.00378604 2.66613e-11 0.0973524
v 0.00456888 2.66613e-11 0.0836601
v 0.00546866 2.66613e-11 0.0823383
v 1.14688 1.1965 0.0910606
v 1.14652 1.1963 0.0909193
v 1.14818 1.19636 0.0911554
v 1.14817 1.19637 0.0911684
v 1.14746 1.19647 0.0912033
v 1.14713 1.19651 0.091194
v 1.14631 1.19657 0.0910366
v 1.14632 1.19659 0.0910789
v 1.14627 1.19642 0.0909071
v 1.14626 1.19639 0.0908969
v 1.14685 1.1963 0.0909602
v 1.14785 1.19631 0.0910838
v 1.1485 1.19631 0.0911718
v 1.14718 1.1963 0.0910011
v 1.14786 1.19636 0.0910998
v 1.14794 1.19634 0.0911017
v 1.14802 1.19632 0.091106
v 1.1481 1.19632 0.0911165
v 1.14802 1.19634 0.0911128
v 1.14819 1.19634 0.0911359
v 1.14786 1.19638 0.091117
v 1.1477 1.19634 0.0910692
v 1.14792 1.1963 0.0910929
v 1.14818 1.19632 0.0911272
v 1.14809 1.1963 0.0911137
v 1.14786 1.19639 0.0911279
v 1.14784 1.19641 0.091154
v 1.14785 1.1964 0.0911402
v 1.14801 1.19639 0.0911647
v 1.14754 1.1964 0.0910757
v 1.14802 1.19638 0.0911445
v 1.14653 1.19657 0.0910915
v 1.1467 1.19654 0.0910811
v 1.14719 1.19648 0.0911111
v 1.14716 1.1965 0.0911578
v 1.14786 1.19638 0.0912894
v 1.14624 1.19633 0.0915211
v 1.14625 1.19636 0.091517
v 1.14636 1.19659 0.0913158
v 1.14713 1.19651 0.0912122
v 1.14816 1.19638 0.0912148
v 1.14799 1.1964 0.0912174
v 1.14818 1.19636 0.091251
v 1.14809 1.1963 0.0912928
v 1.14785 1.19631 0.0913225
v 1.14754 1.1964 0.0913307
v 1.14786 1.19636 0.0913066
v 1.1477 1.19634 0.0913372
v 1.1481 1.19632 0.0912899
v 1.14818 1.19632 0.0912792
v 1.14786 1.19634 0.0913156
v 1.1477 1.19636 0.0913294
v 1.1485 1.19631 0.0912347
v 1.14785 1.1964 0.0912662
v 1.14786 1.19639 0.0912785
v 1.14802 1.19638 0.0912619
v 1.14801 1.19639 0.0912417
v 1.14817 1.19637 0.0912381
v 1.14649 1.19659 0.0912643
v 1.1467 1.19654 0.0913251
v 1.14653 1.19657 0.0913147
v 1.14719 1.19648 0.0912952
v 1.14751 1.19645 0.0912586
v 1.14689 1.19649 0.0913575
# </points>

# <edges count="370">
l 65 66
l 67 68
l 69 70
l 71 72
l 73 74
l 1 2
l 1 15
l 16 1
l 16 18
l 75 19
l 19 17
l 20 67
l 76 21
l 77 78
l 79 80
l 80 81
l 81 77
l 82 79
l 83 23
l 84 3
l 3 85
l 85 24
l 86 87
l 88 87
l 89 90
l 4 91
l 92 93
l 94 72
l 95 96
l 96 97
l 98 25
l 99 26
l 26 100
l 101 102
l 103 101
l 104 27
l 105 106
l 29 28
l 107 29
l 108 30
l 31 109
l 110 111
l 112 32
l 113 98
l 114 115
l 25 116
l 33 117
l 114 118
l 29 119
l 30 120
l 121 111
l 100 109
l 122 120
l 123 34
l 124 125
l 126 123
l 35 127
l 127 36
l 36 126
l 68 125
l 128 129
l 112 130
l 110 27
l 31 104
l 108 106
l 36 22
l 32 18
l 128 75
l 131 132
l 133 37
l 134 34
l 135 136
l 129 137
l 65 134
l 37 135
l 138 133
l 4 139
l 140 141
l 142 143
l 143 144
l 145 38
l 5 39
l 146 147
l 148 149
l 41 150
l 151 3
l 23 152
l 42 76
l 42 153
l 154 20
l 19 155
l 1 44
l 45 156
l 157 158
l 6 159
l 7 160
l 8 161
l 39 8
l 40 8
l 162 163
l 164 6
l 46 6
l 165 166
l 167 165
l 16 43
l 48 168
l 168 49
l 169 50
l 170 171
l 172 51
l 171 173
l 174 175
l 176 157
l 177 175
l 178 7
l 47 7
l 179 52
l 180 172
l 181 179
l 45 182
l 53 182
l 169 48
l 142 54
l 183 181
l 184 55
l 185 186
l 42 57
l 56 184
l 187 185
l 188 189
l 189 190
l 43 190
l 155 186
l 41 58
l 191 192
l 10 191
l 193 194
l 195 196
l 197 198
l 198 149
l 199 200
l 56 154
l 140 201
l 141 202
l 203 55
l 38 204
l 38 205
l 205 206
l 162 207
l 167 53
l 195 208
l 54 209
l 210 60
l 211 11
l 11 212
l 4 213
l 214 215
l 73 216
l 217 215
l 92 218
l 60 219
l 89 220
l 61 25
l 70 61
l 61 221
l 2 61
l 11 222
l 11 62
l 62 41
l 146 223
l 63 5
l 5 224
l 63 224
l 156 64
l 64 61
l 225 226
l 227 228
l 226 229
l 230 227
l 229 231
l 232 230
l 231 233
l 234 232
l 233 235
l 236 234
l 235 237
l 238 236
l 237 239
l 240 238
l 239 241
l 64 240
l 241 221
l 228 242
l 242 243
l 244 225
l 243 245
l 245 246
l 246 247
l 247 248
l 248 249
l 250 251
l 251 252
l 252 244
l 249 253
l 253 254
l 254 255
l 256 257
l 257 258
l 258 250
l 259 260
l 261 259
l 260 262
l 263 261
l 262 264
l 265 263
l 264 266
l 267 265
l 266 268
l 255 267
l 268 269
l 269 256
l 28 33
l 59 58
l 9 58
l 59 9
l 10 58
l 9 10
l 66 270
l 271 71
l 17 18
l 17 16
l 19 272
l 273 20
l 22 21
l 23 274
l 275 84
l 24 275
l 276 90
l 277 91
l 93 278
l 279 74
l 280 95
l 97 280
l 281 25
l 26 282
l 283 102
l 94 271
l 103 283
l 27 284
l 105 285
l 286 29
l 107 287
l 288 30
l 31 289
l 12 15
l 290 32
l 291 118
l 113 281
l 116 292
l 115 291
l 287 119
l 30 293
l 121 15
l 282 289
l 122 293
l 294 69
l 34 35
l 295 137
l 35 296
l 297 124
l 36 296
l 298 297
l 290 130
l 12 299
l 12 27
l 31 284
l 288 285
l 286 33
l 28 117
l 298 22
l 32 272
l 300 273
l 301 132
l 302 37
l 300 295
l 270 303
l 37 304
l 138 302
l 305 145
l 40 39
l 306 39
l 307 147
l 308 148
l 24 309
l 310 21
l 78 311
l 42 310
l 312 19
l 43 17
l 44 206
l 313 45
l 314 176
l 46 164
l 47 178
l 40 161
l 46 159
l 48 13
l 13 315
l 49 13
l 50 316
l 51 170
l 51 173
l 314 158
l 317 174
l 317 177
l 47 160
l 52 45
l 318 52
l 180 50
l 50 51
l 319 318
l 52 53
l 320 53
l 321 320
l 316 48
l 144 49
l 322 49
l 54 322
l 183 319
l 56 323
l 324 325
l 153 326
l 57 326
l 311 57
l 187 323
l 188 324
l 312 325
l 327 56
l 58 328
l 41 59
l 329 196
l 330 308
l 55 57
l 327 20
l 331 201
l 151 309
l 331 332
l 203 202
l 305 204
l 38 44
l 163 333
l 207 333
l 166 321
l 329 208
l 14 210
l 14 60
l 276 220
l 211 212
l 277 213
l 216 279
l 217 214
l 278 218
l 14 219
l 292 61
l 294 61
l 62 222
l 307 223
l 59 62
l 63 306
l 64 313
# </edges>
