v 1.14672 1.19652 0.0910418
v 1.14688 1.1965 0.0910606
l 1 2
v 1.14652 1.1963 0.0909193
v 1.14654 1.1963 0.0909221
l 3 4
v 1.14862 1.19632 0.0912033
v 1.14818 1.19636 0.0911497
l 5 6
v 1.14862 1.19632 0.0912033
v 1.1487 1.19632 0.0912033
l 7 8
v 1.14855 1.19633 0.0912033
v 1.14818 1.19636 0.0911554
l 9 10
v 1.14817 1.19637 0.0911684
v 1.1484 1.19635 0.0912033
l 11 12
v 1.14816 1.19638 0.0911917
v 1.14825 1.19637 0.0912033
l 13 14
v 1.14734 1.19649 0.0912033
v 1.14746 1.19647 0.0912033
l 15 16
v 1.14713 1.19651 0.091194
v 1.14689 1.19655 0.0912033
l 17 18
v 1.14719 1.19651 0.0912033
v 1.14713 1.19651 0.091194
l 19 20
v 1.14631 1.19657 0.0910366
v 1.14639 1.19656 0.091036
l 21 22
v 1.14632 1.19659 0.0910789
v 1.14636 1.19659 0.0910903
l 23 24
v 1.1464 1.1964 0.0909182
v 1.14627 1.19642 0.0909071
l 25 26
v 1.14626 1.19639 0.0908969
v 1.14639 1.19638 0.0909098
l 27 28
v 1.14685 1.1963 0.0909602
v 1.14689 1.1963 0.0909647
l 29 30
v 1.14669 1.1963 0.0909397
v 1.14685 1.1963 0.0909602
l 31 32
v 1.14785 1.19631 0.0910838
v 1.14792 1.1963 0.0910924
l 33 34
v 1.14861 1.1963 0.0911776
v 1.1485 1.19631 0.0911718
l 35 36
v 1.14718 1.1963 0.0910011
v 1.14702 1.1963 0.0909805
l 37 38
v 1.14637 1.19632 0.0908999
v 1.14652 1.1963 0.0909193
l 39 40
v 1.14723 1.1963 0.0910073
v 1.14718 1.1963 0.0910011
l 41 42
v 1.1477 1.19638 0.0910837
v 1.14786 1.19636 0.0910998
l 43 44
v 1.14786 1.19635 0.0910934
v 1.14794 1.19634 0.0911017
l 45 46
v 1.14802 1.19632 0.091106
v 1.1481 1.19632 0.0911149
l 47 48
v 1.14802 1.19633 0.0911078
v 1.1481 1.19632 0.0911165
l 49 50
v 1.14802 1.19634 0.0911128
v 1.1481 1.19633 0.0911185
l 51 52
v 1.14802 1.19635 0.091116
v 1.14819 1.19634 0.0911359
l 53 54
v 1.14786 1.19637 0.0911077
v 1.14818 1.19635 0.0911445
l 55 56
v 1.14786 1.19638 0.091117
v 1.14802 1.19637 0.0911332
l 57 58
v 1.1477 1.19634 0.0910692
v 1.14753 1.19635 0.0910499
l 59 60
v 1.14777 1.19631 0.0910735
v 1.14785 1.19631 0.0910838
l 61 62
v 1.14793 1.19631 0.0910933
v 1.14792 1.1963 0.0910929
l 63 64
v 1.14786 1.19633 0.0910866
v 1.1477 1.19634 0.0910692
l 65 66
v 1.1481 1.19632 0.0911165
v 1.14818 1.19631 0.0911243
l 67 68
v 1.1481 1.19633 0.0911185
v 1.14818 1.19632 0.0911272
l 69 70
v 1.1485 1.19632 0.091176
v 1.14818 1.19635 0.0911445
l 71 72
v 1.1485 1.19631 0.0911718
v 1.14819 1.19634 0.0911359
l 73 74
v 1.14835 1.1963 0.0911456
v 1.14818 1.19632 0.0911272
l 75 76
v 1.14809 1.1963 0.0911137
v 1.14809 1.19631 0.0911139
l 77 78
v 1.14752 1.19645 0.0911328
v 1.14767 1.19643 0.0911508
l 79 80
v 1.14786 1.19639 0.0911279
v 1.1477 1.19641 0.0911115
l 81 82
v 1.14767 1.19643 0.0911508
v 1.14784 1.19641 0.091154
l 83 84
v 1.14785 1.1964 0.0911402
v 1.14769 1.19642 0.0911233
l 85 86
v 1.148 1.1964 0.0911723
v 1.14784 1.19641 0.091154
l 87 88
v 1.14801 1.19639 0.0911647
v 1.14785 1.1964 0.0911402
l 89 90
v 1.14786 1.19638 0.091117
v 1.14754 1.19641 0.0910848
l 91 92
v 1.14786 1.19637 0.0911077
v 1.14754 1.1964 0.0910757
l 93 94
v 1.14786 1.19637 0.0911077
v 1.1477 1.19638 0.0910837
l 95 96
v 1.14802 1.19635 0.091116
v 1.14786 1.19636 0.0910998
l 97 98
v 1.14802 1.19634 0.0911128
v 1.14794 1.19634 0.0911017
l 99 100
v 1.14802 1.19632 0.091106
v 1.14794 1.19632 0.0910955
l 101 102
v 1.14801 1.19632 0.0911046
v 1.14793 1.19632 0.0910942
l 103 104
v 1.14801 1.19639 0.0911647
v 1.14816 1.19638 0.0911917
l 105 106
v 1.14802 1.19637 0.0911332
v 1.14818 1.19636 0.0911554
l 107 108
v 1.14802 1.19638 0.0911445
v 1.14817 1.19637 0.0911684
l 109 110
v 1.14653 1.19657 0.0910915
v 1.14637 1.19658 0.0910618
l 111 112
v 1.1467 1.19654 0.0910811
v 1.14686 1.19653 0.0911015
l 113 114
v 1.14802 1.19638 0.0911445
v 1.14786 1.19639 0.0911279
l 115 116
v 1.14688 1.1965 0.0910606
v 1.14719 1.19648 0.0911111
l 117 118
v 1.14686 1.19653 0.0911015
v 1.14716 1.1965 0.0911578
l 119 120
v 1.14655 1.19655 0.0910496
v 1.1467 1.19654 0.0910811
l 121 122
v 1.14786 1.19638 0.0912894
v 1.14754 1.19641 0.0913215
l 123 124
v 1.14652 1.1963 0.0914869
v 1.14637 1.19632 0.0915062
l 125 126
v 1.14624 1.19633 0.0915211
v 1.14637 1.19632 0.0915062
l 127 128
v 1.14625 1.19636 0.091517
v 1.14638 1.19635 0.0915025
l 129 130
v 1.14636 1.19659 0.0913158
v 1.14632 1.1966 0.0913053
l 131 132
v 1.14719 1.19651 0.0912033
v 1.14713 1.19651 0.0912122
l 133 134
v 1.14816 1.19638 0.0912148
v 1.14825 1.19637 0.0912033
l 135 136
v 1.1481 1.19639 0.0912033
v 1.14799 1.1964 0.0912174
l 137 138
v 1.148 1.1964 0.091234
v 1.14816 1.19638 0.0912148
l 139 140
v 1.14818 1.19636 0.091251
v 1.14855 1.19633 0.0912033
l 141 142
v 1.14818 1.19636 0.0912567
v 1.14862 1.19632 0.0912033
l 143 144
v 1.14818 1.19635 0.0912619
v 1.1485 1.19632 0.0912305
l 145 146
v 1.14809 1.1963 0.0912928
v 1.14809 1.19631 0.0912925
l 147 148
v 1.14785 1.19631 0.0913225
v 1.14792 1.1963 0.0913141
l 149 150
v 1.14718 1.1963 0.0914053
v 1.14703 1.19632 0.0914244
l 151 152
v 1.14685 1.1963 0.0914461
v 1.1467 1.19632 0.0914655
l 153 154
v 1.14652 1.1963 0.0914869
v 1.14654 1.1963 0.0914844
l 155 156
v 1.14718 1.1963 0.0914053
v 1.14723 1.1963 0.0913992
l 157 158
v 1.1477 1.19638 0.0913227
v 1.14786 1.19637 0.0912987
l 159 160
v 1.14786 1.19637 0.0912987
v 1.14754 1.1964 0.0913307
l 161 162
v 1.14819 1.19634 0.0912705
v 1.14786 1.19637 0.0912987
l 163 164
v 1.14802 1.19634 0.0912936
v 1.14786 1.19636 0.0913066
l 165 166
v 1.14794 1.19634 0.0913047
v 1.14786 1.19635 0.091313
l 167 168
v 1.14794 1.19634 0.0913047
v 1.14802 1.19633 0.0912986
l 169 170
v 1.14785 1.19631 0.0913225
v 1.14777 1.19631 0.0913328
l 171 172
v 1.1477 1.19634 0.0913372
v 1.14785 1.19632 0.0913213
l 173 174
v 1.1477 1.19634 0.0913372
v 1.14754 1.19635 0.0913564
l 175 176
v 1.14685 1.1963 0.0914461
v 1.14689 1.1963 0.0914418
l 177 178
v 1.14802 1.19632 0.0913004
v 1.14809 1.19631 0.0912925
l 179 180
v 1.1481 1.19632 0.0912899
v 1.14802 1.19632 0.0913004
l 181 182
v 1.1481 1.19633 0.0912879
v 1.14802 1.19634 0.0912936
l 183 184
v 1.14802 1.19634 0.0912936
v 1.14794 1.19634 0.0913047
l 185 186
v 1.14818 1.19632 0.0912792
v 1.1481 1.19632 0.0912899
l 187 188
v 1.14802 1.19632 0.0913004
v 1.14794 1.19633 0.0913092
l 189 190
v 1.14786 1.19634 0.0913156
v 1.14794 1.19633 0.0913092
l 191 192
v 1.1477 1.19636 0.0913294
v 1.14786 1.19634 0.0913156
l 193 194
v 1.14786 1.19636 0.0913066
v 1.1477 1.19638 0.0913227
l 195 196
v 1.14803 1.19635 0.0912904
v 1.14819 1.19634 0.0912705
l 197 198
v 1.1485 1.19631 0.0912347
v 1.14819 1.19634 0.0912705
l 199 200
v 1.14861 1.1963 0.0912289
v 1.1485 1.19631 0.0912347
l 201 202
v 1.14835 1.1963 0.0912609
v 1.14818 1.19632 0.0912792
l 203 204
v 1.14801 1.19639 0.0912489
v 1.14785 1.1964 0.0912662
l 205 206
v 1.14786 1.19639 0.0912785
v 1.14802 1.19638 0.0912619
l 207 208
v 1.14816 1.19638 0.091223
v 1.14801 1.19639 0.0912417
l 209 210
v 1.14784 1.19641 0.0912523
v 1.14801 1.19639 0.0912417
l 211 212
v 1.14799 1.1964 0.0912174
v 1.14784 1.19641 0.0912523
l 213 214
v 1.14769 1.19642 0.0912831
v 1.14785 1.1964 0.0912662
l 215 216
v 1.1477 1.19641 0.0912949
v 1.14786 1.19639 0.0912785
l 217 218
v 1.14818 1.19636 0.091251
v 1.14802 1.19638 0.0912619
l 219 220
v 1.14817 1.19637 0.0912381
v 1.14801 1.19639 0.0912489
l 221 222
v 1.14632 1.19661 0.0912666
v 1.14649 1.19659 0.0912643
l 223 224
v 1.14632 1.19662 0.0912562
v 1.14632 1.19661 0.0912643
l 225 226
v 1.1467 1.19654 0.0913251
v 1.14655 1.19656 0.0913435
l 227 228
v 1.14653 1.19657 0.0913147
v 1.14636 1.19659 0.0913158
l 229 230
v 1.14768 1.19643 0.09127
v 1.14784 1.19641 0.0912523
l 231 232
v 1.14817 1.19637 0.0912381
v 1.1484 1.19635 0.0912033
l 233 234
v 1.14719 1.19648 0.0912952
v 1.14688 1.19651 0.0913328
l 235 236
v 1.14683 1.19655 0.0912556
v 1.14713 1.19651 0.0912122
l 237 238
v 1.14719 1.19648 0.0912952
v 1.14751 1.19645 0.0912586
l 239 240
v 1.14753 1.19644 0.0912872
v 1.14768 1.19643 0.0912555
l 241 242
v 1.14786 1.19638 0.0912894
v 1.14802 1.19637 0.0912732
l 243 244
v 1.14786 1.19638 0.0912942
v 1.14818 1.19635 0.0912619
l 245 246
v 1.14657 1.19652 0.0913918
v 1.14689 1.19649 0.0913575
l 247 248
v 1.14721 1.19646 0.0913333
v 1.14689 1.19649 0.0913575
l 249 250
v 1.14754 1.19638 0.0913457
v 1.1477 1.19636 0.0913294
l 251 252
v 1.1467 1.19654 0.0913251
v 1.14686 1.19653 0.0913047
l 253 254
v 0.701579 1.19909 0.0822804
v 0.701171 1.1995 0.0827967
l 255 256
v 0.701579 1.19909 0.0822804
v 0.701577 1.19909 0.082279
l 257 258
v 1.14631 1.19657 0.0910366
v 1.03505 1.20705 0.0837964
l 259 260
v 1.14632 1.19662 0.0911847
v 1.03585 1.20929 0.0898837
l 261 262
v 1.14632 1.19659 0.0910789
v 1.03549 1.20831 0.0860747
l 263 264
v 1.03209 1.19878 0.0783831
v 1.14626 1.19639 0.0908969
l 265 266
v 1.14624 1.19633 0.0908849
v 1.03194 1.19751 0.0782342
l 267 268
v 1.14627 1.19642 0.0909071
v 1.03252 1.19999 0.0786776
l 269 270
v 0.701579 1.19909 0.0822804
v 0.704414 1.19919 0.0810095
l 271 272
v 1.14792 1.1963 0.0910929
v 0.812737 1.8163e-11 0.0912033
l 273 274
v 1.14809 1.1963 0.0911137
v 0.812737 1.8163e-11 0.0912033
l 275 276
v 1.03585 1.20929 0.0925228
v 1.14632 1.19662 0.091246
l 277 278
v 1.14625 1.19636 0.091517
v 1.03209 1.19878 0.104023
l 279 280
v 1.14632 1.19661 0.0912643
v 1.03585 1.20929 0.0925228
l 281 282
v 1.03194 1.19751 0.104172
v 1.14624 1.19633 0.0915211
l 283 284
v 0.808145 2.66613e-11 0.0917716
v 1.14809 1.1963 0.0912928
l 285 286
