v 1.14689 1.1965 0.0910487
v 1.14672 1.19652 0.0910418
l 1 2
v 1.14817 1.19638 0.0911756
v 1.14801 1.19639 0.0911508
l 3 4
v 1.14809 1.19631 0.0911139
v 1.14809 1.1963 0.0911133
l 5 6
v 1.14654 1.1963 0.0909221
v 1.14652 1.1963 0.0909192
l 7 8
v 1.14626 1.19639 0.0908959
v 1.14639 1.19638 0.0909098
l 9 10
v 1.14877 1.19631 0.0912033
v 1.14882 1.1963 0.0912033
l 11 12
v 1.14877 1.19631 0.0912033
v 1.14818 1.19635 0.0911445
l 13 14
v 1.1487 1.19632 0.0912033
v 1.14877 1.19631 0.0912033
l 15 16
v 1.1487 1.19632 0.0912033
v 1.14818 1.19636 0.0911497
l 17 18
v 1.14818 1.19637 0.0911616
v 1.14855 1.19633 0.0912033
l 19 20
v 1.14855 1.19633 0.0912033
v 1.14862 1.19632 0.0912033
l 21 22
v 1.1484 1.19635 0.0912033
v 1.14817 1.19638 0.0911756
l 23 24
v 1.14815 1.19639 0.0912033
v 1.14825 1.19637 0.0912033
l 25 26
v 1.14798 1.19641 0.0912034
v 1.1481 1.19639 0.0912033
l 27 28
v 1.14781 1.19643 0.0912033
v 1.14794 1.19641 0.0912034
l 29 30
v 1.14794 1.19641 0.0912034
v 1.14795 1.19641 0.0912034
l 31 32
v 1.14795 1.19641 0.0912034
v 1.14798 1.19641 0.0912034
l 33 34
v 1.14779 1.19643 0.0912033
v 1.14781 1.19643 0.0912033
l 35 36
v 1.14747 1.19647 0.0911994
v 1.14734 1.19649 0.0912033
l 37 38
v 1.14689 1.19655 0.0912033
v 1.14712 1.19652 0.0912033
l 39 40
v 1.14712 1.19652 0.0912033
v 1.14713 1.19652 0.0912033
l 41 42
v 1.14713 1.19652 0.0912033
v 1.14719 1.19651 0.0912033
l 43 44
v 1.14664 1.19658 0.0911649
v 1.14648 1.1966 0.0911608
l 45 46
v 1.14632 1.19662 0.0911605
v 1.14648 1.1966 0.0911608
l 47 48
v 1.14631 1.19657 0.0910287
v 1.14639 1.19656 0.091036
l 49 50
v 1.14632 1.1966 0.0910839
v 1.14636 1.19659 0.0910903
l 51 52
v 1.14627 1.19642 0.090905
v 1.1464 1.1964 0.0909182
l 53 54
v 1.14637 1.19632 0.0908999
v 1.14652 1.1963 0.0909192
l 55 56
v 1.14689 1.1963 0.0909647
v 1.14685 1.1963 0.0909601
l 57 58
v 1.14685 1.1963 0.0909601
v 1.14669 1.1963 0.0909397
l 59 60
v 1.14785 1.19631 0.091083
v 1.14792 1.1963 0.0910924
l 61 62
v 1.14869 1.1963 0.0911882
v 1.14861 1.1963 0.0911776
l 63 64
v 1.14861 1.1963 0.0911776
v 1.1485 1.19631 0.0911682
l 65 66
v 1.14718 1.1963 0.0910009
v 1.14702 1.1963 0.0909805
l 67 68
v 1.14723 1.1963 0.0910073
v 1.14718 1.1963 0.0910009
l 69 70
v 1.14786 1.19636 0.0910964
v 1.1477 1.19638 0.0910837
l 71 72
v 1.14786 1.19635 0.0910934
v 1.14794 1.19634 0.0910992
l 73 74
v 1.1481 1.19632 0.0911149
v 1.14801 1.19632 0.0911046
l 75 76
v 1.14802 1.19633 0.0911078
v 1.1481 1.19632 0.0911149
l 77 78
v 1.14802 1.19634 0.0911101
v 1.1481 1.19633 0.0911185
l 79 80
v 1.14802 1.19635 0.091116
v 1.14818 1.19634 0.0911325
l 81 82
v 1.14786 1.19637 0.0911036
v 1.14819 1.19635 0.09114
l 83 84
v 1.14786 1.19638 0.0911122
v 1.14802 1.19637 0.0911332
l 85 86
v 1.14777 1.19631 0.0910735
v 1.14785 1.19631 0.091083
l 87 88
v 1.14769 1.19634 0.0910672
v 1.14786 1.19633 0.0910866
l 89 90
v 1.14792 1.1963 0.0910924
v 1.14793 1.19631 0.0910933
l 91 92
v 1.14794 1.19632 0.0910955
v 1.14793 1.19632 0.0910942
l 93 94
v 1.14769 1.19634 0.0910672
v 1.14753 1.19635 0.0910499
l 95 96
v 1.1481 1.19632 0.0911149
v 1.14818 1.19631 0.0911243
l 97 98
v 1.1481 1.19633 0.0911185
v 1.14818 1.19632 0.0911255
l 99 100
v 1.1485 1.19632 0.091176
v 1.14819 1.19635 0.09114
l 101 102
v 1.1485 1.19631 0.0911682
v 1.14818 1.19634 0.0911325
l 103 104
v 1.14835 1.1963 0.0911456
v 1.14818 1.19632 0.0911255
l 105 106
v 1.14768 1.19643 0.0911364
v 1.14752 1.19645 0.0911328
l 107 108
v 1.14769 1.19642 0.0911233
v 1.14785 1.1964 0.0911338
l 109 110
v 1.14785 1.19641 0.0911469
v 1.14768 1.19643 0.0911364
l 111 112
v 1.14767 1.19643 0.0911508
v 1.14783 1.19642 0.0911694
l 113 114
v 1.14783 1.19642 0.0911694
v 1.148 1.1964 0.0911723
l 115 116
v 1.148 1.1964 0.0911723
v 1.14785 1.19641 0.0911469
l 117 118
v 1.14801 1.19639 0.0911508
v 1.14785 1.1964 0.0911338
l 119 120
v 1.14802 1.19638 0.0911386
v 1.14786 1.19639 0.0911223
l 121 122
v 1.14786 1.19638 0.0911122
v 1.14754 1.19641 0.0910848
l 123 124
v 1.14786 1.19637 0.0911036
v 1.1477 1.19638 0.0910837
l 125 126
v 1.14802 1.19635 0.091116
v 1.14786 1.19636 0.0910964
l 127 128
v 1.14802 1.19634 0.0911101
v 1.14794 1.19634 0.0910992
l 129 130
v 1.148 1.1964 0.0911723
v 1.14816 1.19638 0.0911917
l 131 132
v 1.14802 1.19637 0.0911332
v 1.14818 1.19636 0.0911497
l 133 134
v 1.14802 1.19638 0.0911386
v 1.14818 1.19637 0.0911616
l 135 136
v 1.14654 1.19657 0.0910766
v 1.14637 1.19658 0.0910618
l 137 138
v 1.14671 1.19654 0.0910671
v 1.14686 1.19653 0.0911015
l 139 140
v 1.1472 1.19648 0.0910974
v 1.14752 1.19645 0.0911328
l 141 142
v 1.14717 1.1965 0.0911413
v 1.14748 1.19647 0.0911809
l 143 144
v 1.14786 1.19639 0.0911223
v 1.1477 1.19641 0.0911115
l 145 146
v 1.14689 1.1965 0.0910487
v 1.1472 1.19648 0.0910974
l 147 148
v 1.14686 1.19653 0.0911015
v 1.14717 1.1965 0.0911413
l 149 150
v 1.14655 1.19655 0.0910496
v 1.14671 1.19654 0.0910671
l 151 152
v 1.14632 1.1966 0.0910839
v 1.14633 1.19661 0.0911222
l 153 154
v 1.1472 1.19648 0.0913089
v 1.14752 1.19645 0.0912735
l 155 156
v 1.1485 1.19631 0.0912383
v 1.14819 1.19634 0.091274
l 157 158
v 1.14819 1.19634 0.091274
v 1.14803 1.19635 0.0912904
l 159 160
v 1.14754 1.19641 0.0913215
v 1.14786 1.19638 0.0912942
l 161 162
v 1.14624 1.19633 0.0915216
v 1.14637 1.19632 0.0915062
l 163 164
v 1.14625 1.19636 0.0915174
v 1.14638 1.19635 0.0915025
l 165 166
v 1.14632 1.1966 0.0913053
v 1.14637 1.19659 0.0913305
l 167 168
v 1.14632 1.19662 0.0912562
v 1.14648 1.1966 0.0912453
l 169 170
v 1.14683 1.19655 0.0912556
v 1.14712 1.19652 0.0912033
l 171 172
v 1.14734 1.19649 0.0912033
v 1.14747 1.19647 0.0912069
l 173 174
v 1.148 1.1964 0.091234
v 1.14815 1.19639 0.0912033
l 175 176
v 1.148 1.1964 0.091234
v 1.14816 1.19638 0.091223
l 177 178
v 1.14817 1.19638 0.0912308
v 1.1484 1.19635 0.0912033
l 179 180
v 1.14855 1.19633 0.0912033
v 1.14818 1.19637 0.0912448
l 181 182
v 1.14877 1.19631 0.0912033
v 1.14818 1.19635 0.0912619
l 183 184
v 1.14809 1.19631 0.0912925
v 1.14809 1.1963 0.0912931
l 185 186
v 1.14785 1.19631 0.0913233
v 1.14777 1.19631 0.0913328
l 187 188
v 1.14719 1.1963 0.0914051
v 1.14723 1.1963 0.0913992
l 189 190
v 1.14686 1.1963 0.091446
v 1.14689 1.1963 0.0914418
l 191 192
v 1.14653 1.1963 0.0914868
v 1.14654 1.1963 0.0914844
l 193 194
v 1.14637 1.19632 0.0915062
v 1.14653 1.1963 0.0914868
l 195 196
v 1.14652 1.1963 0.0914869
v 1.14653 1.1963 0.0914868
l 197 198
v 1.14689 1.19649 0.0913686
v 1.14657 1.19652 0.0913918
l 199 200
v 1.14703 1.19632 0.0914244
v 1.14719 1.1963 0.0914051
l 201 202
v 1.14718 1.1963 0.0914053
v 1.14719 1.1963 0.0914051
l 203 204
v 1.1477 1.19636 0.0913323
v 1.14754 1.19638 0.0913457
l 205 206
v 1.14786 1.19634 0.0913179
v 1.1477 1.19636 0.0913323
l 207 208
v 1.1487 1.19632 0.0912033
v 1.14818 1.19636 0.0912567
l 209 210
v 1.1477 1.19638 0.0913227
v 1.14786 1.19637 0.0913028
l 211 212
v 1.14786 1.19637 0.0913028
v 1.14819 1.19634 0.0912705
l 213 214
v 1.14786 1.19636 0.09131
v 1.14802 1.19634 0.0912936
l 215 216
v 1.14786 1.19635 0.091313
v 1.14794 1.19634 0.0913071
l 217 218
v 1.14802 1.19634 0.0912963
v 1.14794 1.19634 0.0913047
l 219 220
v 1.14794 1.19634 0.0913071
v 1.14802 1.19633 0.0912986
l 221 222
v 1.14785 1.19632 0.0913213
v 1.1477 1.19634 0.0913391
l 223 224
v 1.14792 1.1963 0.0913141
v 1.14785 1.19631 0.0913233
l 225 226
v 1.14754 1.19635 0.0913564
v 1.1477 1.19634 0.0913391
l 227 228
v 1.1467 1.19632 0.0914655
v 1.14686 1.1963 0.091446
l 229 230
v 1.14685 1.1963 0.0914461
v 1.14686 1.1963 0.091446
l 231 232
v 1.1481 1.19632 0.0912915
v 1.14802 1.19632 0.0913004
l 233 234
v 1.1481 1.19633 0.0912879
v 1.14802 1.19634 0.0912963
l 235 236
v 1.14818 1.19632 0.0912809
v 1.1481 1.19632 0.0912915
l 237 238
v 1.14809 1.19631 0.0912925
v 1.14802 1.19632 0.0913018
l 239 240
v 1.14794 1.19633 0.0913092
v 1.14802 1.19632 0.0913018
l 241 242
v 1.14786 1.19636 0.09131
v 1.1477 1.19638 0.0913227
l 243 244
v 1.1485 1.19631 0.0912383
v 1.14861 1.1963 0.0912289
l 245 246
v 1.14835 1.1963 0.0912609
v 1.14818 1.19632 0.0912809
l 247 248
v 1.14785 1.19641 0.0912594
v 1.14768 1.19643 0.09127
l 249 250
v 1.14785 1.1964 0.0912725
v 1.14801 1.19639 0.0912556
l 251 252
v 1.148 1.1964 0.091234
v 1.14784 1.19641 0.0912523
l 253 254
v 1.14801 1.19639 0.0912489
v 1.14785 1.19641 0.0912594
l 255 256
v 1.14769 1.19642 0.0912831
v 1.14785 1.1964 0.0912725
l 257 258
v 1.1477 1.19641 0.0912949
v 1.14786 1.19639 0.0912841
l 259 260
v 1.14786 1.19639 0.0912841
v 1.14802 1.19638 0.0912678
l 261 262
v 1.14818 1.19636 0.0912567
v 1.14802 1.19638 0.0912678
l 263 264
v 1.14818 1.19637 0.0912448
v 1.14801 1.19639 0.0912556
l 265 266
v 1.14632 1.19662 0.0912562
v 1.14632 1.19661 0.0912666
l 267 268
v 1.14634 1.19661 0.091284
v 1.14651 1.19659 0.0912822
l 269 270
v 1.14632 1.19661 0.0912858
v 1.14634 1.19661 0.091284
l 271 272
v 1.14652 1.19658 0.0912989
v 1.14668 1.19656 0.0912944
l 273 274
v 1.14671 1.19654 0.091339
v 1.14655 1.19656 0.0913435
l 275 276
v 1.1467 1.19655 0.0913102
v 1.14654 1.19657 0.0913295
l 277 278
v 1.14654 1.19657 0.0913295
v 1.14637 1.19659 0.0913305
l 279 280
v 1.14717 1.1965 0.091265
v 1.14685 1.19654 0.0912892
l 281 282
v 1.14801 1.19639 0.0912489
v 1.14817 1.19638 0.0912308
l 283 284
v 1.1472 1.19648 0.0913089
v 1.14688 1.19651 0.0913328
l 285 286
v 1.14752 1.19645 0.0912735
v 1.14768 1.19643 0.0912555
l 287 288
v 1.14753 1.19644 0.0912872
v 1.14768 1.19643 0.09127
l 289 290
v 1.14786 1.19638 0.0912942
v 1.14802 1.19637 0.0912732
l 291 292
v 1.14786 1.19638 0.0912942
v 1.14819 1.19635 0.0912665
l 293 294
v 1.14819 1.19635 0.0912665
v 1.1485 1.19632 0.0912305
l 295 296
v 1.14689 1.19649 0.0913686
v 1.14721 1.19646 0.0913333
l 297 298
v 1.14786 1.19634 0.0913179
v 1.14794 1.19633 0.0913092
l 299 300
v 1.14671 1.19654 0.091339
v 1.14686 1.19653 0.0913047
l 301 302
v 1.14861 1.1963 0.0912289
v 1.14869 1.1963 0.0912183
l 303 304
v 0.701171 1.1995 0.0827967
v 0.701577 1.19909 0.082279
l 305 306
v 1.14632 1.19662 0.0911847
v 1.11554 1.20057 0.0912033
l 307 308
v 1.11554 1.20057 0.0912033
v 1.03585 1.20929 0.0898837
l 309 310
v 1.14632 1.1966 0.0910839
v 1.03549 1.20831 0.0860747
l 311 312
v 1.03194 1.19751 0.0782342
v 1.08908 1.1963 0.0839633
l 313 314
v 1.14626 1.19639 0.0908959
v 1.03209 1.19878 0.0783831
l 315 316
v 1.14624 1.19633 0.0908849
v 1.08908 1.1963 0.0839633
l 317 318
v 1.14627 1.19642 0.090905
v 1.03252 1.19999 0.0786776
l 319 320
v 0.701577 1.19909 0.082279
v 0.704414 1.19919 0.0810095
l 321 322
v 1.14631 1.19657 0.0910287
v 1.03505 1.20705 0.0837964
l 323 324
v 0.812737 1.8163e-11 0.0912033
v 1.14792 1.1963 0.0910924
l 325 326
v 1.14809 1.1963 0.0911133
v 0.812737 1.8163e-11 0.0912033
l 327 328
v 0.812737 1.8163e-11 0.0912033
v 0.808145 -3.14099e-12 0.0906349
l 329 330
v 1.14882 1.1963 0.0912033
v 0.812737 1.8163e-11 0.0912033
l 331 332
v 1.11554 1.20057 0.0912033
v 1.14632 1.19662 0.091246
l 333 334
v 1.11554 1.20057 0.0912033
v 1.03585 1.20929 0.0925228
l 335 336
v 1.03585 1.20929 0.0925228
v 1.14632 1.19662 0.0912562
l 337 338
v 1.14625 1.19636 0.0915174
v 1.03209 1.19878 0.104023
l 339 340
v 1.03194 1.19751 0.104172
v 1.14624 1.19633 0.0915216
l 341 342
v 1.14624 1.19633 0.0915216
v 1.08908 1.1963 0.0984432
l 343 344
v 1.03194 1.19751 0.104172
v 1.08908 1.1963 0.0984432
l 345 346
v 1.14809 1.1963 0.0912931
v 0.808145 2.66613e-11 0.0917716
l 347 348
v 0.808145 2.66613e-11 0.0917716
v 0.812737 1.8163e-11 0.0912033
l 349 350
v 0.0430743 2.66613e-11 0.0671943
v 0.0938429 2.66613e-11 0.0608504
l 351 352
v 0.144849 2.66613e-11 0.12562
v 0.0938429 2.66613e-11 0.121556
l 353 354
v 0.0938429 2.66613e-11 0.0608504
v 0.144849 2.66613e-11 0.0567861
l 355 356
v 0.195949 2.66613e-11 0.1283
v 0.144849 2.66613e-11 0.12562
l 357 358
v 0.144849 2.66613e-11 0.0567861
v 0.195949 2.66613e-11 0.0541067
l 359 360
v 0.298256 2.66613e-11 0.130625
v 0.195949 2.66613e-11 0.1283
l 361 362
v 0.195949 2.66613e-11 0.0541067
v 0.298256 2.66613e-11 0.0517817
l 363 364
v 0.400572 2.66613e-11 0.128728
v 0.298256 2.66613e-11 0.130625
l 365 366
v 0.298256 2.66613e-11 0.0517817
v 0.400572 2.66613e-11 0.0536782
l 367 368
v 0.502735 2.66613e-11 0.122785
v 0.400572 2.66613e-11 0.128728
l 369 370
v 0.400572 2.66613e-11 0.0536782
v 0.502735 2.66613e-11 0.0596211
l 371 372
v 0.604723 2.66613e-11 0.114317
v 0.502735 2.66613e-11 0.122785
l 373 374
v 0.502735 2.66613e-11 0.0596211
v 0.604723 2.66613e-11 0.0680899
l 375 376
v 0.706548 2.66613e-11 0.104074
v 0.604723 2.66613e-11 0.114317
l 377 378
v 0.604723 2.66613e-11 0.0680899
v 0.706548 2.66613e-11 0.0783326
l 379 380
v 0.808145 2.66613e-11 0.0917716
v 0.706548 2.66613e-11 0.104074
l 381 382
v 0.706548 2.66613e-11 0.0783326
v 0.808145 -3.14099e-12 0.0906349
l 383 384
v 0.0938429 2.66613e-11 0.121556
v 0.0430743 2.66613e-11 0.115212
l 385 386
v 0.0430743 2.66613e-11 0.115212
v 0.0304752 2.66613e-11 0.113001
l 387 388
v 0.0304752 2.66613e-11 0.0694058
v 0.0430743 2.66613e-11 0.0671943
l 389 390
v 0.0304752 2.66613e-11 0.113001
v 0.0242582 2.66613e-11 0.111499
l 391 392
v 0.0242582 2.66613e-11 0.111499
v 0.0182119 2.66613e-11 0.109419
l 393 394
v 0.0182119 2.66613e-11 0.109419
v 0.0153102 2.66613e-11 0.108074
l 395 396
v 0.0153102 2.66613e-11 0.108074
v 0.0125356 2.66613e-11 0.106483
l 397 398
v 0.0125356 2.66613e-11 0.106483
v 0.00993119 2.66613e-11 0.104628
l 399 400
v 0.0153102 2.66613e-11 0.074333
v 0.0182119 2.66613e-11 0.0729879
l 401 402
v 0.0182119 2.66613e-11 0.0729879
v 0.0242582 2.66613e-11 0.0709077
l 403 404
v 0.0242582 2.66613e-11 0.0709077
v 0.0304752 2.66613e-11 0.0694058
l 405 406
v 0.00993119 2.66613e-11 0.104628
v 0.0075523 2.66613e-11 0.102492
l 407 408
v 0.0075523 2.66613e-11 0.102492
v 0.00546866 2.66613e-11 0.100068
l 409 410
v 0.00546866 2.66613e-11 0.100068
v 0.00456888 2.66613e-11 0.0987464
l 411 412
v 0.0075523 2.66613e-11 0.0799143
v 0.00993119 2.66613e-11 0.0777784
l 413 414
v 0.00993119 2.66613e-11 0.0777784
v 0.0125356 2.66613e-11 0.0759232
l 415 416
v 0.0125356 2.66613e-11 0.0759232
v 0.0153102 2.66613e-11 0.074333
l 417 418
v 0.00224529 2.66613e-11 0.0912033
v 0.00234942 2.66613e-11 0.0896082
l 419 420
v 0.00234942 2.66613e-11 0.0927983
v 0.00224529 2.66613e-11 0.0912033
l 421 422
v 0.00234942 2.66613e-11 0.0896082
v 0.00265405 2.66613e-11 0.0880393
l 423 424
v 0.00265405 2.66613e-11 0.0943672
v 0.00234942 2.66613e-11 0.0927983
l 425 426
v 0.00265405 2.66613e-11 0.0880393
v 0.00314052 2.66613e-11 0.0865167
l 427 428
v 0.00314052 2.66613e-11 0.0958898
v 0.00265405 2.66613e-11 0.0943672
l 429 430
v 0.00314052 2.66613e-11 0.0865167
v 0.00378604 2.66613e-11 0.0850541
l 431 432
v 0.00378604 2.66613e-11 0.0973524
v 0.00314052 2.66613e-11 0.0958898
l 433 434
v 0.00378604 2.66613e-11 0.0850541
v 0.00456888 2.66613e-11 0.0836601
l 435 436
v 0.00456888 2.66613e-11 0.0987464
v 0.00378604 2.66613e-11 0.0973524
l 437 438
v 0.00456888 2.66613e-11 0.0836601
v 0.00546866 2.66613e-11 0.0823383
l 439 440
v 0.00546866 2.66613e-11 0.0823383
v 0.0075523 2.66613e-11 0.0799143
l 441 442
v 1.14801 1.19632 0.0911046
v 1.14794 1.19632 0.0910955
l 443 444
v 1.14632 1.19661 0.0912643
v 1.14632 1.19661 0.0912666
l 445 446
v 1.14632 1.19661 0.0912668
v 1.14632 1.19661 0.0912666
l 447 448
v 1.14632 1.19661 0.0912643
v 1.14632 1.19661 0.0912668
l 449 450
v 1.14632 1.19661 0.0912858
v 1.14632 1.19661 0.0912666
l 451 452
v 1.14632 1.19661 0.0912668
v 1.14632 1.19661 0.0912858
l 453 454
