v 1.14689 1.1965 0.0910487
v 0.154564 1.31341 0.0507746
l 1 2
v 1.14817 1.19638 0.0911756
v 0.161861 1.25812 -0.0617409
l 3 4
v 1.14809 1.19631 0.0911139
v 1.14809 0.198121 0.0309552
l 5 6
v 1.14654 1.1963 0.0909221
v 0.156902 1.1963 -0.0526637
l 7 8
v 1.14626 1.19639 0.0908959
v 2.13768 1.11999 0.196973
l 9 10
v 1.14877 1.19631 0.0912033
v 2.12935 1.00019 0.0912033
l 11 12
v 1.14877 1.19631 0.0912033
v 0.15595 1.26351 -0.00774773
l 13 14
v 1.1487 1.19632 0.0912033
v 2.13862 1.05466 0.0912033
l 15 16
v 1.1487 1.19632 0.0912033
v 0.156861 1.27249 -0.0110332
l 17 18
v 1.14818 1.19637 0.0911616
v 2.13619 1.08942 0.202508
l 19 20
v 1.14855 1.19633 0.0912033
v 2.1387 1.05633 0.0912033
l 21 22
v 1.1484 1.19635 0.0912033
v 0.163824 1.32497 -0.0274026
l 23 24
v 1.14815 1.19639 0.0912033
v 2.12869 1.00005 0.0912033
l 25 26
v 1.14798 1.19641 0.0912034
v 2.13451 1.03281 0.0904074
l 27 28
v 1.14781 1.19643 0.0912033
v 2.13616 1.04424 0.0919394
l 29 30
v 1.14794 1.19641 0.0912034
v 2.14794 1.19641 0.0912034
l 31 32
v 1.14795 1.19641 0.0912034
v 2.14795 1.19641 0.0912034
l 33 34
v 1.14779 1.19643 0.0912033
v 2.14779 1.19643 0.0912033
l 35 36
v 1.14747 1.19647 0.0911994
v 0.159576 1.34873 0.120882
l 37 38
v 1.14689 1.19655 0.0912033
v 2.13846 1.06701 0.0912033
l 39 40
v 1.14712 1.19652 0.0912033
v 2.14712 1.19652 0.0912033
l 41 42
v 1.14713 1.19652 0.0912033
v 2.13347 1.0318 0.0912033
l 43 44
v 1.14664 1.19658 0.0911649
v 0.154616 1.32003 0.0657082
l 45 46
v 1.14632 1.19662 0.0911605
v 2.13857 1.0724 0.093009
l 47 48
v 1.14631 1.19657 0.0910287
v 2.13452 1.07286 0.181234
l 49 50
v 1.14632 1.1966 0.0910839
v 2.10501 0.956927 0.244268
l 51 52
v 1.14627 1.19642 0.090905
v 2.12979 1.04573 0.19078
l 53 54
v 1.14637 1.19632 0.0908999
v 2.12961 1.06501 0.217419
l 55 56
v 1.14689 1.1963 0.0909647
v 0.153412 1.1963 -0.0230562
l 57 58
v 1.14685 1.1963 0.0909601
v 0.154882 1.1963 -0.0355306
l 59 60
v 1.14785 1.19631 0.091083
v 2.12912 1.05589 0.222936
l 61 62
v 1.14869 1.1963 0.0911882
v 0.15736 1.1963 -0.0402073
l 63 64
v 1.14861 1.1963 0.0911776
v 0.156307 1.28661 0.00644749
l 65 66
v 1.14718 1.1963 0.0910009
v 0.155212 1.1963 -0.0354898
l 67 68
v 1.14723 1.1963 0.0910073
v 0.155301 1.1963 -0.0357884
l 69 70
v 1.14786 1.19636 0.0910964
v 0.158655 1.3201 0.0126063
l 71 72
v 1.14786 1.19635 0.0910934
v 2.13755 1.07245 0.162905
l 73 74
v 1.1481 1.19632 0.0911149
v 0.15459 1.19632 -0.0226288
l 75 76
v 1.14802 1.19633 0.0911078
v 2.13663 1.07404 0.178863
l 77 78
v 1.14802 1.19634 0.0911101
v 2.13494 1.07279 0.194711
l 79 80
v 1.14802 1.19635 0.091116
v 2.14082 1.13421 0.193485
l 81 82
v 1.14786 1.19637 0.0911036
v 2.14003 1.13615 0.200563
l 83 84
v 1.14786 1.19638 0.0911122
v 2.13745 1.13444 0.221032
l 85 86
v 1.14777 1.19631 0.0910735
v 2.14079 1.19631 0.209004
l 87 88
v 1.14769 1.19634 0.0910672
v 2.13954 1.13791 0.204268
l 89 90
v 1.14792 1.1963 0.0910924
v 1.8536 1.90198 0.154624
l 91 92
v 1.14794 1.19632 0.0910955
v 0.156217 1.19632 -0.0372973
l 93 94
v 1.14769 1.19634 0.0910672
v 0.155395 1.2584 -0.0161606
l 95 96
v 1.1481 1.19632 0.0911149
v 2.13367 1.07294 0.206968
l 97 98
v 1.1481 1.19633 0.0911185
v 2.13681 1.07403 0.177686
l 99 100
v 1.1485 1.19632 0.091176
v 0.159714 1.29178 -0.0236753
l 101 102
v 1.1485 1.19631 0.0911682
v 0.158933 1.28885 -0.0192548
l 103 104
v 1.14835 1.1963 0.0911456
v 0.161992 1.3125 -0.0254484
l 105 106
v 1.14768 1.19643 0.0911364
v 0.155661 1.32052 0.068792
l 107 108
v 1.14769 1.19642 0.0911233
v 2.13794 1.07319 0.15615
l 109 110
v 1.14785 1.19641 0.0911469
v 0.156581 1.31319 0.0299312
l 111 112
v 1.14767 1.19643 0.0911508
v 2.13906 1.13438 0.206441
l 113 114
v 1.14783 1.19642 0.0911694
v 2.1409 1.08012 0.108101
l 115 116
v 1.148 1.1964 0.0911723
v 0.164121 1.26131 -0.0754635
l 117 118
v 1.14801 1.19639 0.0911508
v 0.155526 1.25851 -0.0142821
l 119 120
v 1.14802 1.19638 0.0911386
v 0.155095 1.25853 -0.0100406
l 121 122
v 1.14786 1.19638 0.0911122
v 0.155797 1.28912 0.00620028
l 123 124
v 1.14786 1.19637 0.0911036
v 0.157403 1.25832 -0.0320121
l 125 126
v 1.14802 1.19635 0.091116
v 0.157354 1.25836 -0.030272
l 127 128
v 1.14802 1.19634 0.0911101
v 0.157178 1.19634 -0.0439125
l 129 130
v 1.148 1.1964 0.0911723
v 2.13315 1.07307 0.210645
l 131 132
v 1.14802 1.19637 0.0911332
v 2.14082 1.13423 0.193548
l 133 134
v 1.14802 1.19638 0.0911386
v 2.13595 1.13454 0.233172
l 135 136
v 1.14654 1.19657 0.0910766
v 0.152018 1.25515 0.00450924
l 137 138
v 1.14671 1.19654 0.0910671
v 2.11934 1.13159 0.314171
l 139 140
v 1.1472 1.19648 0.0910974
v 2.13684 1.10356 0.200583
l 141 142
v 1.14717 1.1965 0.0911413
v 2.1346 1.10121 0.217251
l 143 144
v 1.14786 1.19639 0.0911223
v 0.157717 1.31951 0.024354
l 145 146
v 1.14689 1.1965 0.0910487
v 2.13279 1.13317 0.245949
l 147 148
v 1.14686 1.19653 0.0911015
v 2.13416 1.10084 0.217885
l 149 150
v 1.14655 1.19655 0.0910496
v 2.1387 1.13445 0.199589
l 151 152
v 1.14632 1.1966 0.0910839
v 1.39153 1.44181 1.02903
l 153 154
v 1.1472 1.19648 0.0913089
v 2.13684 1.10356 -0.018177
l 155 156
v 1.1485 1.19631 0.0912383
v 0.159607 1.29178 0.205151
l 157 158
v 1.14819 1.19634 0.091274
v 0.155326 1.25849 0.193048
l 159 160
v 1.14754 1.19641 0.0913215
v 2.13963 1.10367 0.00670763
l 161 162
v 1.14624 1.19633 0.0915216
v 2.13648 1.121 -0.0257347
l 163 164
v 1.14625 1.19636 0.0915174
v 2.13684 1.12002 -0.0220823
l 165 166
v 1.14632 1.1966 0.0913053
v 2.02565 1.02073 0.53385
l 167 168
v 1.14632 1.19662 0.0912562
v 2.13632 1.07269 0.0238026
l 169 170
v 1.14683 1.19655 0.0912556
v 2.12589 1.09514 -0.0852755
l 171 172
v 1.14734 1.19649 0.0912033
v 2.1353 1.04422 0.118565
l 173 174
v 1.148 1.1964 0.091234
v 2.1256 1.13112 -0.10887
l 175 176
v 1.148 1.1964 0.091234
v 2.13795 1.07247 0.0231838
l 177 178
v 1.14817 1.19638 0.0912308
v 2.13285 1.06774 -0.0265257
l 179 180
v 1.14855 1.19633 0.0912033
v 0.160481 1.30329 0.202019
l 181 182
v 1.14877 1.19631 0.0912033
v 0.155916 1.26352 0.189819
l 183 184
v 1.14809 1.19631 0.0912925
v 1.14809 0.198077 0.150711
l 185 186
v 1.14785 1.19631 0.0913233
v 0.154828 1.19631 0.209254
l 187 188
v 1.14719 1.1963 0.0914051
v 2.13651 1.1963 -0.0543432
l 189 190
v 1.14686 1.1963 0.091446
v 2.13725 1.1963 -0.0468453
l 191 192
v 1.14653 1.1963 0.0914868
v 2.11901 1.1963 -0.141503
l 193 194
v 1.14637 1.19632 0.0915062
v 2.13152 1.07299 -0.0279669
l 195 196
v 1.14652 1.1963 0.0914869
v 2.14647 1.1963 0.0810708
l 197 198
v 1.14689 1.19649 0.0913686
v 0.153814 1.28933 0.163353
l 199 200
v 1.14703 1.19632 0.0914244
v 2.13225 1.07298 -0.0274154
l 201 202
v 1.14718 1.1963 0.0914053
v 2.14698 1.1963 0.0713201
l 203 204
v 1.1477 1.19636 0.0913323
v 0.158852 1.32015 0.174135
l 205 206
v 1.14786 1.19634 0.0913179
v 0.159523 1.31997 0.180226
l 207 208
v 1.1487 1.19632 0.0912033
v 0.156822 1.2725 0.19306
l 209 210
v 1.1477 1.19638 0.0913227
v 2.13816 1.13443 -0.031793
l 211 212
v 1.14786 1.19637 0.0913028
v 2.13904 1.10613 -0.00571626
l 213 214
v 1.14786 1.19636 0.09131
v 2.13502 1.07278 -0.00987962
l 215 216
v 1.14786 1.19635 0.091313
v 2.13747 1.07246 0.0184009
l 217 218
v 1.14802 1.19634 0.0912963
v 0.153485 1.19634 0.195697
l 219 220
v 1.14794 1.19634 0.0913071
v 2.13472 1.07281 -0.0135662
l 221 222
v 1.14785 1.19632 0.0913213
v 0.163314 1.32691 0.208083
l 223 224
v 1.14792 1.1963 0.0913141
v 0.166286 1.33677 0.220394
l 225 226
v 1.14754 1.19635 0.0913564
v 2.13982 1.13424 -0.01595
l 227 228
v 1.1467 1.19632 0.0914655
v 2.13177 1.073 -0.0286406
l 229 230
v 1.14685 1.1963 0.0914461
v 2.1468 1.1963 0.08103
l 231 232
v 1.1481 1.19632 0.0912915
v 0.154228 1.19632 0.201825
l 233 234
v 1.1481 1.19633 0.0912879
v 0.161184 1.31988 0.194888
l 235 236
v 1.14818 1.19632 0.0912809
v 0.15685 1.19632 0.222676
l 237 238
v 1.14809 1.19631 0.0912925
v 0.166629 1.33676 0.221708
l 239 240
v 1.14794 1.19633 0.0913092
v 2.13622 1.07408 -9.94744e-05
l 241 242
v 1.14786 1.19636 0.09131
v 0.158651 1.3201 0.169754
l 243 244
v 1.1485 1.19631 0.0912383
v 2.1408 1.106 0.00650819
l 245 246
v 1.14835 1.1963 0.0912609
v 0.161927 1.31251 0.2073
l 247 248
v 1.14785 1.19641 0.0912594
v 0.156618 1.31319 0.153081
l 249 250
v 1.14785 1.1964 0.0912725
v 2.14039 1.13427 -0.0136119
l 251 252
v 1.148 1.1964 0.091234
v 0.156348 1.25773 0.204661
l 253 254
v 1.14801 1.19639 0.0912489
v 0.157761 1.31962 0.156229
l 255 256
v 1.14769 1.19642 0.0912831
v 2.1379 1.0732 0.0257057
l 257 258
v 1.1477 1.19641 0.0912949
v 2.13784 1.07329 0.0245266
l 259 260
v 1.14786 1.19639 0.0912841
v 2.14079 1.13424 -0.0098951
l 261 262
v 1.14818 1.19636 0.0912567
v 0.158269 1.32028 0.159949
l 263 264
v 1.14818 1.19637 0.0912448
v 0.157018 1.31314 0.154192
l 265 266
v 1.14632 1.19662 0.0912562
v 1.14632 0.503058 0.811653
l 267 268
v 1.14634 1.19661 0.091284
v 2.13942 1.07961 0.0807508
l 269 270
v 1.14632 1.19661 0.0912858
v 2.14229 1.19661 0.0016187
l 271 272
v 1.14652 1.19658 0.0912989
v 2.13839 1.07241 0.063398
l 273 274
v 1.14671 1.19654 0.091339
v 0.154841 1.32071 0.11924
l 275 276
v 1.1467 1.19655 0.0913102
v 0.161477 1.31989 0.21015
l 277 278
v 1.14654 1.19657 0.0913295
v 0.153345 1.31288 0.0971626
l 279 280
v 1.14717 1.1965 0.091265
v 0.157697 1.32037 0.166102
l 281 282
v 1.14801 1.19639 0.0912489
v 2.13976 1.13431 -0.0209414
l 283 284
v 1.1472 1.19648 0.0913089
v 0.154287 1.28933 0.165481
l 285 286
v 1.14752 1.19645 0.0912735
v 2.13367 1.07309 -0.0196039
l 287 288
v 1.14753 1.19644 0.0912872
v 2.13885 1.1303 -0.0223425
l 289 290
v 1.14786 1.19638 0.0912942
v 2.13745 1.13444 -0.0385808
l 291 292
v 1.14786 1.19638 0.0912942
v 2.14028 1.10603 0.00798012
l 293 294
v 1.14819 1.19635 0.0912665
v 2.13698 1.10089 -0.0235848
l 295 296
v 1.14689 1.19649 0.0913686
v 2.13656 1.10357 -0.0178212
l 297 298
v 1.14786 1.19634 0.0913179
v 2.13438 1.07284 -0.0160088
l 299 300
v 1.14671 1.19654 0.091339
v 2.11948 1.13159 -0.131167
l 301 302
v 1.14861 1.1963 0.0912289
v 2.13994 1.1963 -0.0401666
l 303 304
v 0.701171 1.1995 0.0827967
v 1.22494 0.670658 -0.585031
l 305 306
v 1.14632 1.19662 0.0911847
v 0.154454 1.32391 0.0917842
l 307 308
v 1.11554 1.20057 0.0912033
v 0.121608 1.30933 0.0747446
l 309 310
v 1.14632 1.1966 0.0910839
v 0.152858 1.30157 0.0461823
l 311 312
v 1.03194 1.19751 0.0782342
v 2.02673 1.17644 0.177976
l 313 314
v 1.14626 1.19639 0.0908959
v 0.152427 1.21719 -0.018026
l 315 316
v 1.14624 1.19633 0.0908849
v 0.153492 1.19581 -0.0293286
l 317 318
v 1.14627 1.19642 0.090905
v 0.152482 1.22761 -0.0159209
l 319 320
v 0.701577 1.19909 0.082279
v 1.61389 1.23125 -0.325959
l 321 322
v 1.14631 1.19657 0.0910287
v 0.152795 1.29015 0.0264466
l 323 324
v 0.812737 1.8163e-11 0.0912033
v 1.08253 0.962918 0.091114
l 325 326
v 1.14809 1.1963 0.0911133
v 0.87817 0.233417 0.0911857
l 327 328
v 0.812737 1.8163e-11 0.0912033
v -0.179689 -4.58607e-09 -0.0316407
l 329 330
v 1.14882 1.1963 0.0912033
v 0.878355 0.23357 0.0912033
l 331 332
v 1.11554 1.20057 0.0912033
v 2.10741 1.07328 0.0925793
l 333 334
v 1.11554 1.20057 0.0912033
v 0.121608 1.30933 0.107661
l 335 336
v 1.03585 1.20929 0.0925228
v 2.02927 1.09535 0.0811327
l 337 338
v 1.14625 1.19636 0.0915174
v 0.152417 1.21743 0.200386
l 339 340
v 1.03194 1.19751 0.104172
v 2.02582 1.18725 -0.00582767
l 341 342
v 1.14624 1.19633 0.0915216
v 0.153492 1.19581 0.211735
l 343 344
v 1.03194 1.19751 0.104172
v 2.02673 1.17644 0.0044353
l 345 346
v 1.14809 1.1963 0.0912931
v 0.874748 0.234383 0.0916779
l 347 348
v 0.808145 2.66613e-11 0.0917716
v 1.80057 -1.81e-09 -0.0310502
l 349 350
v 0.0430743 2.66613e-11 0.0671943
v 1.03536 2.66613e-11 -0.0567985
l 351 352
v 0.144849 2.66613e-11 0.12562
v -0.851992 2.66613e-11 0.0461951
l 353 354
v 0.0938429 2.66613e-11 0.0608504
v 1.09068 2.66613e-11 -0.0185804
l 355 356
v 0.195949 2.66613e-11 0.1283
v -0.802679 2.66613e-11 0.0759257
l 357 358
v 0.144849 2.66613e-11 0.0567861
v 1.14348 2.66613e-11 0.00442359
l 359 360
v 0.298256 2.66613e-11 0.130625
v -0.701486 2.66613e-11 0.107905
l 361 362
v 0.195949 2.66613e-11 0.0541067
v 1.19569 2.66613e-11 0.0313868
l 363 364
v 0.400572 2.66613e-11 0.128728
v -0.599256 2.66613e-11 0.147265
l 365 366
v 0.298256 2.66613e-11 0.0517817
v 1.29808 2.66613e-11 0.0703142
l 367 368
v 0.502735 2.66613e-11 0.122785
v -0.495577 2.66613e-11 0.180859
l 369 370
v 0.400572 2.66613e-11 0.0536782
v 1.39888 2.66613e-11 0.111751
l 371 372
v 0.604723 2.66613e-11 0.114317
v -0.391848 2.66613e-11 0.197062
l 373 374
v 0.502735 2.66613e-11 0.0596211
v 1.49931 2.66613e-11 0.142374
l 375 376
v 0.706548 2.66613e-11 0.104074
v -0.288431 2.66613e-11 0.204163
l 377 378
v 0.604723 2.66613e-11 0.0680899
v 1.5997 2.66613e-11 0.168176
l 379 380
v 0.808145 2.66613e-11 0.0917716
v -0.184603 2.66613e-11 0.211984
l 381 382
v 0.706548 2.66613e-11 0.0783326
v 1.6993 -2.6455e-10 0.198544
l 383 384
v 0.0938429 2.66613e-11 0.121556
v -0.89844 2.66613e-11 -0.00243876
l 385 386
v 0.0430743 2.66613e-11 0.115212
v -0.941874 2.66613e-11 -0.0576357
l 387 388
v 0.0304752 2.66613e-11 0.0694058
v 1.01542 2.66613e-11 -0.10348
l 389 390
v 0.0304752 2.66613e-11 0.113001
v -0.941559 2.66613e-11 -0.121838
l 391 392
v 0.0242582 2.66613e-11 0.111499
v -0.921353 2.66613e-11 -0.213801
l 393 394
v 0.0182119 2.66613e-11 0.109419
v -0.889062 2.66613e-11 -0.311122
l 395 396
v 0.0153102 2.66613e-11 0.108074
v -0.852189 2.66613e-11 -0.389365
l 397 398
v 0.0125356 2.66613e-11 0.106483
v -0.80198 2.66613e-11 -0.473659
l 399 400
v 0.0153102 2.66613e-11 0.074333
v 0.922572 2.66613e-11 -0.346233
l 401 402
v 0.0182119 2.66613e-11 0.0729879
v 0.963813 2.66613e-11 -0.252342
l 403 404
v 0.0242582 2.66613e-11 0.0709077
v 0.996296 2.66613e-11 -0.163916
l 405 406
v 0.00993119 2.66613e-11 0.104628
v -0.73414 2.66613e-11 -0.563472
l 407 408
v 0.0075523 2.66613e-11 0.102492
v -0.644308 2.66613e-11 -0.655847
l 409 410
v 0.00546866 2.66613e-11 0.100068
v -0.557307 2.66613e-11 -0.726542
l 411 412
v 0.0075523 2.66613e-11 0.0799143
v 0.751639 2.66613e-11 -0.588169
l 413 414
v 0.00993119 2.66613e-11 0.0777784
v 0.824417 2.66613e-11 -0.502405
l 415 416
v 0.0125356 2.66613e-11 0.0759232
v 0.880143 2.66613e-11 -0.421327
l 417 418
v 0.00224529 2.66613e-11 0.0912033
v 0.0673877 2.66613e-11 -0.906673
l 419 420
v 0.00234942 2.66613e-11 0.0927983
v -0.0627973 2.66613e-11 -0.905077
l 421 422
v 0.00234942 2.66613e-11 0.0896082
v 0.192958 2.66613e-11 -0.892058
l 423 424
v 0.00265405 2.66613e-11 0.0943672
v -0.187954 2.66613e-11 -0.887299
l 425 426
v 0.00265405 2.66613e-11 0.0880393
v 0.306997 2.66613e-11 -0.864523
l 427 428
v 0.00314052 2.66613e-11 0.0958898
v -0.301203 2.66613e-11 -0.856673
l 429 430
v 0.00314052 2.66613e-11 0.0865167
v 0.406914 2.66613e-11 -0.828342
l 431 432
v 0.00378604 2.66613e-11 0.0973524
v -0.399988 2.66613e-11 -0.817507
l 433 434
v 0.00378604 2.66613e-11 0.0850541
v 0.493438 2.66613e-11 -0.786864
l 435 436
v 0.00456888 2.66613e-11 0.0987464
v -0.485083 2.66613e-11 -0.773172
l 437 438
v 0.00456888 2.66613e-11 0.0836601
v 0.567288 2.66613e-11 -0.742988
l 439 440
v 0.00546866 2.66613e-11 0.0823383
v 0.657328 2.66613e-11 -0.676002
l 441 442
v 1.14801 1.19632 0.0911046
v 0.156355 1.19632 -0.0378148
l 443 444
v 1.14632 1.19661 0.0912643
v 1.14632 1.19661 1.09126
l 445 446
v 1.14632 1.19661 0.0912668
v 1.14632 1.19661 -0.908733
l 447 448
v 1.14632 1.19661 0.0912643
v 1.14632 1.19661 1.09126
l 449 450
v 1.14632 1.19661 0.0912858
v 1.14632 1.19661 -0.908714
l 451 452
v 1.14632 1.19661 0.0912668
v 1.14632 1.19661 1.09127
l 453 454
v 1.14672 1.19652 0.0910418
v 2.1323 1.07314 0.206849
l 455 456
v 1.14652 1.1963 0.0909193
v 2.13688 1.1963 0.229452
l 457 458
v 1.14862 1.19632 0.0912033
v 0.159963 1.28605 -0.0292316
l 459 460
v 1.14862 1.19632 0.0912033
v 2.14862 1.19632 0.0912033
l 461 462
v 1.14855 1.19633 0.0912033
v 0.160024 1.27658 -0.0367613
l 463 464
v 1.14817 1.19637 0.0911684
v 2.1332 1.11058 0.24066
l 465 466
v 1.14816 1.19638 0.0911917
v 2.13397 1.0867 0.218254
l 467 468
v 1.14734 1.19649 0.0912033
v 2.13368 1.03177 0.0912033
l 469 470
v 1.14713 1.19651 0.091194
v 0.161497 1.36103 0.129416
l 471 472
v 1.14719 1.19651 0.0912033
v 0.159019 1.19651 -0.0621547
l 473 474
v 1.14631 1.19657 0.0910366
v 2.13854 1.07236 0.0835505
l 475 476
v 1.14632 1.19659 0.0910789
v 2.10813 1.19659 0.364807
l 477 478
v 1.1464 1.1964 0.0909182
v 0.16144 1.34731 0.00676739
l 479 480
v 1.14626 1.19639 0.0908969
v 2.13845 1.11993 0.189433
l 481 482
v 1.14685 1.1963 0.0909602
v 2.1406 1.1963 0.202609
l 483 484
v 1.14669 1.1963 0.0909397
v 2.13858 1.1963 0.218021
l 485 486
v 1.14785 1.19631 0.0910838
v 2.13052 1.05569 0.211825
l 487 488
v 1.14861 1.1963 0.0911776
v 0.154093 1.28681 0.038785
l 489 490
v 1.14718 1.1963 0.0910011
v 0.155369 1.1963 -0.0367167
l 491 492
v 1.14637 1.19632 0.0908999
v 2.12952 1.06502 0.218092
l 493 494
v 1.14723 1.1963 0.0910073
v 0.154807 1.1963 -0.0318641
l 495 496
v 1.1477 1.19638 0.0910837
v 2.13506 1.07287 0.190381
l 497 498
v 1.14786 1.19635 0.0910934
v 2.1349 1.07279 0.193511
l 499 500
v 1.14802 1.19632 0.091106
v 2.14188 1.19632 0.201731
l 501 502
v 1.14802 1.19633 0.0911078
v 2.13472 1.07428 0.198454
l 503 504
v 1.14802 1.19634 0.0911128
v 2.1378 1.07243 0.16164
l 505 506
v 1.14802 1.19635 0.091116
v 2.13955 1.13794 0.207148
l 507 508
v 1.14786 1.19637 0.0911077
v 2.13939 1.13431 0.205167
l 509 510
v 1.14786 1.19638 0.091117
v 2.14085 1.13423 0.191655
l 511 512
v 1.1477 1.19634 0.0910692
v 0.155779 1.25477 -0.0215305
l 513 514
v 1.14777 1.19631 0.0910735
v 2.13957 1.19631 0.218837
l 515 516
v 1.14793 1.19631 0.0910933
v 0.441108 0.489488 0.0626942
l 517 518
v 1.14786 1.19633 0.0910866
v 0.155634 1.25839 -0.0167802
l 519 520
v 1.1481 1.19632 0.0911165
v 2.13574 1.07268 0.187434
l 521 522
v 1.1481 1.19633 0.0911185
v 2.1348 1.07428 0.198465
l 523 524
v 1.1485 1.19632 0.091176
v 0.157594 1.28899 -0.00638248
l 525 526
v 1.1485 1.19631 0.0911718
v 0.159679 1.29177 -0.0233745
l 527 528
v 1.14835 1.1963 0.0911456
v 0.160904 1.31263 -0.0157094
l 529 530
v 1.14809 1.1963 0.0911137
v 1.14809 2.1961 0.111199
l 531 532
v 1.14752 1.19645 0.0911328
v 2.1318 1.06511 0.209184
l 533 534
v 1.14786 1.19639 0.0911279
v 0.16059 1.31916 -0.00999745
l 535 536
v 1.14767 1.19643 0.0911508
v 2.14063 1.07945 0.109864
l 537 538
v 1.14785 1.1964 0.0911402
v 0.160916 1.31922 -0.0131516
l 539 540
v 1.148 1.1964 0.0911723
v 0.156348 1.25773 -0.0222543
l 541 542
v 1.14801 1.19639 0.0911647
v 0.161419 1.25814 -0.0599117
l 543 544
v 1.14786 1.19638 0.091117
v 0.157159 1.28899 -0.0085527
l 545 546
v 1.14786 1.19637 0.0911077
v 0.157129 1.28935 -0.00791926
l 547 548
v 1.14786 1.19637 0.0911077
v 0.160795 1.25811 -0.056851
l 549 550
v 1.14802 1.19635 0.091116
v 0.155035 1.2585 -0.00946815
l 551 552
v 1.14802 1.19634 0.0911128
v 0.157514 1.19634 -0.046355
l 553 554
v 1.14802 1.19632 0.091106
v 0.156522 1.19632 -0.0390188
l 555 556
v 1.14801 1.19632 0.0911046
v 0.156346 1.19632 -0.0377489
l 557 558
v 1.14801 1.19639 0.0911647
v 2.13007 1.13082 0.267982
l 559 560
v 1.14802 1.19637 0.0911332
v 2.13663 1.13449 0.228338
l 561 562
v 1.14802 1.19638 0.0911445
v 2.13342 1.13058 0.248197
l 563 564
v 1.14653 1.19657 0.0910915
v 0.165184 1.258 -0.0910827
l 565 566
v 1.1467 1.19654 0.0910811
v 2.13676 1.13457 0.217329
l 567 568
v 1.14802 1.19638 0.0911445
v 0.155282 1.25852 -0.011865
l 569 570
v 1.14688 1.1965 0.0910606
v 2.13189 1.13323 0.251551
l 571 572
v 1.14686 1.19653 0.0911015
v 2.12498 1.0986 0.274645
l 573 574
v 1.14655 1.19655 0.0910496
v 2.12311 1.13134 0.296181
l 575 576
v 1.14786 1.19638 0.0912894
v 0.157127 1.289 0.190639
l 577 578
v 1.14652 1.1963 0.0914869
v 0.163285 1.32761 0.218006
l 579 580
v 1.14624 1.19633 0.0915211
v 2.13691 1.12096 -0.0219842
l 581 582
v 1.14625 1.19636 0.091517
v 2.13718 1.11999 -0.0190535
l 583 584
v 1.14636 1.19659 0.0913158
v 0.206135 1.43165 -0.155109
l 585 586
v 1.14719 1.19651 0.0912033
v 0.158017 1.19651 0.237957
l 587 588
v 1.14816 1.19638 0.0912148
v 2.13411 1.08668 -0.034723
l 589 590
v 1.1481 1.19639 0.0912033
v 0.160224 1.28629 0.217765
l 591 592
v 1.148 1.1964 0.091234
v 2.13329 1.07305 -0.0270177
l 593 594
v 1.14818 1.19636 0.091251
v 2.13677 1.1161 -0.036185
l 595 596
v 1.14818 1.19636 0.0912567
v 2.13689 1.10662 -0.0287327
l 597 598
v 1.14818 1.19635 0.0912619
v 2.13912 1.10368 -0.00599946
l 599 600
v 1.14809 1.1963 0.0912928
v 1.14809 2.19586 0.0615441
l 601 602
v 1.14785 1.19631 0.0913225
v 2.13085 1.05564 -0.0266339
l 603 604
v 1.14718 1.1963 0.0914053
v 0.163781 1.32763 0.216626
l 605 606
v 1.14685 1.1963 0.0914461
v 0.1637 1.3276 0.218638
l 607 608
v 1.14652 1.1963 0.0914869
v 2.1388 1.1963 -0.0325478
l 609 610
v 1.14718 1.1963 0.0914053
v 2.13983 1.1963 -0.0295745
l 611 612
v 1.1477 1.19638 0.0913227
v 2.13476 1.13464 -0.0566359
l 613 614
v 1.14786 1.19637 0.0912987
v 0.157132 1.28935 0.190348
l 615 616
v 1.14819 1.19634 0.0912705
v 0.155896 1.28668 0.176075
l 617 618
v 1.14802 1.19634 0.0912936
v 0.158972 1.32016 0.171626
l 619 620
v 1.14794 1.19634 0.0913047
v 0.160903 1.3199 0.193723
l 621 622
v 1.14794 1.19634 0.0913047
v 2.13737 1.07248 0.0159177
l 623 624
v 1.14785 1.19631 0.0913225
v 0.156045 1.19631 0.219086
l 625 626
v 1.1477 1.19634 0.0913372
v 2.1336 1.06557 -0.0131059
l 627 628
v 1.1477 1.19634 0.0913372
v 0.156737 1.25837 0.210269
l 629 630
v 1.14685 1.1963 0.0914461
v 2.14114 1.1963 -0.0152699
l 631 632
v 1.14802 1.19632 0.0913004
v 2.13181 1.05554 -0.0197327
l 633 634
v 1.1481 1.19632 0.0912899
v 0.156602 1.19632 0.221415
l 635 636
v 1.1481 1.19633 0.0912879
v 0.158316 1.32024 0.161816
l 637 638
v 1.14802 1.19634 0.0912936
v 0.157501 1.19634 0.228671
l 639 640
v 1.14818 1.19632 0.0912792
v 0.157007 1.19632 0.223854
l 641 642
v 1.14802 1.19632 0.0913004
v 0.161445 1.31836 0.199827
l 643 644
v 1.14786 1.19634 0.0913156
v 2.137 1.07251 0.0121731
l 645 646
v 1.1477 1.19636 0.0913294
v 2.13635 1.07269 0.00607366
l 647 648
v 1.14786 1.19636 0.0913066
v 0.160497 1.31987 0.190603
l 649 650
v 1.14803 1.19635 0.0912904
v 2.13847 1.13436 -0.0319153
l 651 652
v 1.1485 1.19631 0.0912347
v 0.159641 1.29177 0.205453
l 653 654
v 1.14861 1.1963 0.0912289
v 0.154093 1.28681 0.143622
l 655 656
v 1.14835 1.1963 0.0912609
v 0.160845 1.31264 0.19756
l 657 658
v 1.14801 1.19639 0.0912489
v 0.155726 1.2585 0.198555
l 659 660
v 1.14786 1.19639 0.0912785
v 2.1406 1.13425 -0.011731
l 661 662
v 1.14816 1.19638 0.091223
v 0.158017 1.26249 0.214696
l 663 664
v 1.14784 1.19641 0.0912523
v 2.13915 1.08032 0.0294689
l 665 666
v 1.14799 1.1964 0.0912174
v 0.17602 1.26053 0.317405
l 667 668
v 1.14769 1.19642 0.0912831
v 2.13463 1.0736 -0.0129633
l 669 670
v 1.1477 1.19641 0.0912949
v 2.13497 1.07364 -0.00983045
l 671 672
v 1.14818 1.19636 0.091251
v 0.158185 1.32029 0.158705
l 673 674
v 1.14817 1.19637 0.0912381
v 0.158135 1.32031 0.158095
l 675 676
v 1.14632 1.19661 0.0912666
v 2.13936 1.07962 0.0778177
l 677 678
v 1.14632 1.19662 0.0912562
v 1.14632 0.419092 0.720105
l 679 680
v 1.1467 1.19654 0.0913251
v 0.162752 1.32794 0.21207
l 681 682
v 1.14653 1.19657 0.0913147
v 0.153338 1.31288 0.0977137
l 683 684
v 1.14768 1.19643 0.09127
v 2.13401 1.07296 -0.0178728
l 685 686
v 1.14817 1.19637 0.0912381
v 2.13327 1.11058 -0.0578164
l 687 688
v 1.14719 1.19648 0.0912952
v 0.158997 1.29188 0.211185
l 689 690
v 1.14683 1.19655 0.0912556
v 2.128 1.06557 -0.0506629
l 691 692
v 1.14719 1.19648 0.0912952
v 2.13643 1.10364 -0.0218129
l 693 694
v 1.14753 1.19644 0.0912872
v 2.12386 1.1313 -0.114943
l 695 696
v 1.14786 1.19638 0.0912894
v 2.14085 1.13423 -0.00924897
l 697 698
v 1.14786 1.19638 0.0912942
v 2.13849 1.10337 -0.00870543
l 699 700
v 1.14657 1.19652 0.0913918
v 2.13661 1.10397 -0.0147101
l 701 702
v 1.14721 1.19646 0.0913333
v 0.1544 1.28967 0.166423
l 703 704
v 1.14754 1.19638 0.0913457
v 2.13477 1.07279 -0.00920681
l 705 706
v 1.1467 1.19654 0.0913251
v 2.13676 1.13457 -0.0349225
l 707 708
v 0.701579 1.19909 0.0822804
v 0.175341 1.72786 0.748217
l 709 710
v 0.701579 1.19909 0.0822804
v -0.112988 1.19909 -0.49779
l 711 712
v 1.14631 1.19657 0.0910366
v 0.1528 1.29015 0.0263842
l 713 714
v 1.14632 1.19662 0.0911847
v 0.152901 1.31056 0.0794853
l 715 716
v 1.14632 1.19659 0.0910789
v 0.152866 1.30165 0.0462224
l 717 718
v 1.03209 1.19878 0.0783831
v 2.02592 1.17798 0.187314
l 719 720
v 1.14624 1.19633 0.0908849
v 0.152362 1.20659 -0.0191173
l 721 722
v 1.14627 1.19642 0.0909071
v 0.152484 1.22761 -0.0159369
l 723 724
v 0.701579 1.19909 0.0822804
v 1.61361 1.23127 -0.326569
l 725 726
v 1.14792 1.1963 0.0910929
v 0.878127 0.233382 0.0911818
l 727 728
v 1.14809 1.1963 0.0911137
v 0.87817 0.233417 0.0911858
l 729 730
v 1.03585 1.20929 0.0925228
v 2.02927 1.09535 0.081041
l 731 732
v 1.14625 1.19636 0.091517
v 0.152418 1.21743 0.200389
l 733 734
v 1.14632 1.19661 0.0912643
v 0.152907 1.31064 0.102582
l 735 736
v 1.03194 1.19751 0.104172
v 2.02582 1.18725 -0.00583195
l 737 738
v 0.808145 2.66613e-11 0.0917716
v 1.08149 0.961917 0.0913866
l 739 740
