v 1.14818 1.19635 0.0911445
v 1.1487 1.19632 0.0912033
v 1.14862 1.19632 0.0912033
v 1.14818 1.19636 0.0911497
v 1.14855 1.19633 0.0912033
v 1.1484 1.19635 0.0912033
v 1.14825 1.19637 0.0912033
v 1.14816 1.19638 0.0911917
v 1.14734 1.19649 0.0912033
v 1.14719 1.19651 0.0912033
v 1.14792 1.1963 0.0910924
v 1.14861 1.1963 0.0911776
v 1.1477 1.19638 0.0910837
v 1.14801 1.19632 0.0911046
v 1.1481 1.19632 0.0911149
v 1.1481 1.19633 0.0911185
v 1.14802 1.19635 0.091116
v 1.14802 1.19637 0.0911332
v 1.14794 1.19632 0.0910955
v 1.14752 1.19645 0.0911328
v 1.14767 1.19643 0.0911508
v 1.148 1.1964 0.0911723
v 1.14686 1.19653 0.0911015
v 1.14786 1.19638 0.0912942
v 1.14637 1.19632 0.0915062
v 1.14652 1.1963 0.0914869
v 1.14632 1.19662 0.0912562
v 1.148 1.1964 0.091234
v 1.14818 1.19636 0.0912567
v 1.14818 1.19635 0.0912619
v 1.14809 1.19631 0.0912925
v 1.14718 1.1963 0.0914053
v 1.14685 1.1963 0.0914461
v 1.1477 1.19638 0.0913227
v 1.14819 1.19634 0.0912705
v 1.14802 1.19634 0.0912936
v 1.14794 1.19634 0.0913047
v 1.14802 1.19632 0.0913004
v 1.14794 1.19633 0.0913092
v 1.14861 1.1963 0.0912289
v 1.14768 1.19643 0.09127
v 1.14801 1.19639 0.0912489
v 1.14784 1.19641 0.0912523
v 1.14632 1.19661 0.0912666
v 1.14632 1.19661 0.0912643
v 0.701577 1.19909 0.082279
v 0.812737 1.8163e-11 0.0912033
v 1.03585 1.20929 0.0925228
v 1.03194 1.19751 0.104172
v 0.808145 2.66613e-11 0.0917716
